<svg xmlns="http://www.w3.org/2000/svg" width="860" height="410" viewBox="0 0 860 410" fill="none" role="img" shape-rendering="geometricPrecision"><title>mcpsnoop is a transparent shim between an AI client and an MCP server, copying every JSON-RPC frame to a live terminal UI</title><rect x="44" y="80" width="188" height="84" rx="11" fill="none" stroke="#D0D7DE" stroke-width="1.75"></rect><rect x="314" y="80" width="232" height="84" rx="11" fill="rgba(31,182,255,0.07)" stroke="#1FB6FF" stroke-width="1.75"></rect><rect x="628" y="80" width="188" height="84" rx="11" fill="none" stroke="#D0D7DE" stroke-width="1.75"></rect><rect x="314" y="286" width="232" height="84" rx="11" fill="rgba(31,182,255,0.07)" stroke="#1FB6FF" stroke-width="1.75"></rect><path d="M97.7 119L96.2 119L101.2 103.6L103.8 103.6L108.8 119L107.3 119L106.0 114.9L99.0 114.9L97.7 119ZM102.4 104.4L99.4 113.6L105.6 113.6L102.6 104.4L102.4 104.4ZM112.7 119L111.3 119L111.3 103.6L112.7 103.6L112.7 119ZM127.1 119.3L127.1 119.3Q125.5 119.3 124.3 118.6Q123.1 118.0 122.4 116.7Q121.7 115.5 121.7 113.8L121.7 113.8L121.7 113.5Q121.7 111.8 122.4 110.6Q123.1 109.3 124.3 108.7Q125.5 108 127.1 108L127.1 108Q128.6 108 129.7 108.6Q130.8 109.2 131.4 110.1Q132.0 111.0 132.1 112.1L132.1 112.1L130.8 112.3Q130.7 111.5 130.3 110.8Q129.8 110.0 129.1 109.6Q128.3 109.2 127.1 109.2L127.1 109.2Q125.9 109.2 125.0 109.7Q124.1 110.3 123.5 111.2Q123.0 112.2 123.0 113.6L123.0 113.6L123.0 113.7Q123.0 115.1 123.5 116.1Q124.1 117.0 125.0 117.6Q125.9 118.1 127.1 118.1L127.1 118.1Q128.9 118.1 129.8 117.2Q130.7 116.3 130.9 115.0L130.9 115.0L132.2 115.2Q132.0 116.3 131.4 117.2Q130.8 118.1 129.7 118.7Q128.6 119.3 127.1 119.3ZM136.8 119L135.5 119L135.5 103.6L136.8 103.6L136.8 119ZM142.0 119L140.7 119L140.7 108.3L142.0 108.3L142.0 119ZM141.3 106.5L141.3 106.5Q140.8 106.5 140.5 106.1Q140.2 105.8 140.2 105.3L140.2 105.3Q140.2 104.8 140.5 104.5Q140.8 104.2 141.3 104.2L141.3 104.2Q141.8 104.2 142.2 104.5Q142.5 104.8 142.5 105.3L142.5 105.3Q142.5 105.8 142.2 106.1Q141.8 106.5 141.3 106.5ZM150.8 119.3L150.8 119.3Q149.1 119.3 147.9 118.6Q146.7 117.9 146.0 116.7Q145.3 115.4 145.3 113.8L145.3 113.8L145.3 113.5Q145.3 111.9 146.0 110.6Q146.7 109.4 147.9 108.7Q149.1 108 150.6 108L150.6 108Q152.1 108 153.3 108.6Q154.4 109.3 155.1 110.4Q155.8 111.6 155.8 113.2L155.8 113.2L155.8 113.9L146.7 113.9Q146.7 115.9 147.9 117.0Q149.0 118.1 150.8 118.1L150.8 118.1Q152.3 118.1 153.1 117.4Q153.9 116.8 154.4 115.8L154.4 115.8L155.6 116.3Q155.2 117.0 154.7 117.7Q154.1 118.4 153.1 118.9Q152.2 119.3 150.8 119.3ZM146.7 112.8L146.7 112.8L154.4 112.8Q154.3 111.1 153.3 110.1Q152.3 109.2 150.6 109.2L150.6 109.2Q149.0 109.2 148.0 110.1Q146.9 111.1 146.7 112.8ZM160.3 119L159.0 119L159.0 108.3L160.3 108.3L160.3 110.3L160.6 110.3Q161.0 109.4 161.9 108.8Q162.8 108.1 164.5 108.1L164.5 108.1Q165.6 108.1 166.6 108.6Q167.6 109.1 168.2 110.0Q168.7 111.0 168.7 112.5L168.7 112.5L168.7 119L167.4 119L167.4 112.6Q167.4 110.8 166.5 110.0Q165.7 109.3 164.2 109.3L164.2 109.3Q162.5 109.3 161.4 110.4Q160.3 111.5 160.3 113.7L160.3 113.7L160.3 119ZM178.8 119L176.0 119Q175.2 119 174.8 118.6Q174.3 118.1 174.3 117.3L174.3 117.3L174.3 109.5L170.9 109.5L170.9 108.3L174.3 108.3L174.3 104.3L175.7 104.3L175.7 108.3L179.4 108.3L179.4 109.5L175.7 109.5L175.7 117.2Q175.7 117.8 176.3 117.8L176.3 117.8L178.8 117.8L178.8 119Z" fill="#1F2328" stroke="#1F2328" stroke-width="0.66" stroke-linejoin="round"></path><path d="M92.2 139.2L92.2 139.2Q90.6 139.2 89.6 138.2Q88.6 137.2 88.6 135.3L88.6 135.3L88.6 133.2Q88.6 131.3 89.6 130.3Q90.6 129.4 92.2 129.4L92.2 129.4Q93.9 129.4 94.8 130.3Q95.6 131.2 95.6 132.8L95.6 132.8L95.6 132.9L94.8 132.9L94.8 132.8Q94.8 131.6 94.2 130.9Q93.5 130.1 92.2 130.1L92.2 130.1Q90.9 130.1 90.2 130.9Q89.5 131.7 89.5 133.2L89.5 133.2L89.5 135.4Q89.5 136.8 90.2 137.6Q90.9 138.4 92.2 138.4L92.2 138.4Q93.5 138.4 94.2 137.7Q94.8 136.9 94.8 135.8L94.8 135.8L94.8 135.6L95.6 135.6L95.6 135.7Q95.6 137.3 94.8 138.3Q93.9 139.2 92.2 139.2ZM98.4 139L97.6 139L97.6 129.6L98.4 129.6L98.4 139ZM102.8 139.2L102.8 139.2Q102.1 139.2 101.5 139.0Q101.0 138.7 100.6 138.3Q100.3 137.8 100.3 137.2L100.3 137.2Q100.3 136.5 100.6 136.1Q101.0 135.6 101.5 135.4Q102.1 135.2 102.8 135.2L102.8 135.2L105.2 135.2L105.2 134.7Q105.2 133.9 104.7 133.4Q104.2 133.0 103.4 133.0L103.4 133.0Q102.5 133.0 102.0 133.4Q101.5 133.8 101.3 134.5L101.3 134.5L100.5 134.3Q100.7 133.7 101.0 133.3Q101.4 132.8 102.0 132.5Q102.5 132.3 103.4 132.3L103.4 132.3Q104.6 132.3 105.3 132.9Q106.0 133.5 106.0 134.7L106.0 134.7L106.0 137.9Q106.0 138.3 106.3 138.3L106.3 138.3L107.0 138.3L107.0 139L106.1 139Q105.7 139 105.5 138.8Q105.2 138.5 105.2 138.1L105.2 138.1L105.2 138.0L105.1 138.0Q104.9 138.3 104.6 138.6Q104.3 138.8 103.9 139.0Q103.5 139.2 102.8 139.2ZM102.8 138.5L102.8 138.5Q103.9 138.5 104.5 137.8Q105.2 137.2 105.2 136.1L105.2 136.1L105.2 135.9L102.8 135.9Q102.1 135.9 101.6 136.2Q101.1 136.5 101.1 137.1L101.1 137.1Q101.1 137.8 101.6 138.1Q102.1 138.5 102.8 138.5ZM110.9 139.1L110.9 139.1Q110.2 139.1 109.6 138.8Q109.0 138.5 108.6 137.9Q108.3 137.3 108.3 136.4L108.3 136.4L108.3 132.4L109.1 132.4L109.1 136.4Q109.1 137.4 109.6 137.9Q110.1 138.4 111.1 138.4L111.1 138.4Q112.1 138.4 112.7 137.7Q113.4 137.1 113.4 135.7L113.4 135.7L113.4 132.4L114.2 132.4L114.2 139L113.4 139L113.4 137.8L113.3 137.8Q113.0 138.3 112.5 138.7Q111.9 139.1 110.9 139.1ZM119.4 139.2L119.4 139.2Q118.6 139.2 117.8 138.8Q117.1 138.4 116.7 137.6Q116.3 136.8 116.3 135.8L116.3 135.8L116.3 135.6Q116.3 134.6 116.7 133.8Q117.1 133.1 117.8 132.7Q118.6 132.3 119.4 132.3L119.4 132.3Q120.2 132.3 120.7 132.4Q121.2 132.6 121.5 132.9Q121.8 133.2 122.0 133.6L122.0 133.6L122.1 133.6L122.1 129.6L122.9 129.6L122.9 139L122.2 139L122.2 137.8L122.0 137.8Q121.7 138.3 121.1 138.8Q120.5 139.2 119.4 139.2ZM119.6 138.5L119.6 138.5Q120.7 138.5 121.4 137.7Q122.1 137.0 122.1 135.8L122.1 135.8L122.1 135.7Q122.1 134.4 121.4 133.7Q120.7 133.0 119.6 133.0L119.6 133.0Q118.5 133.0 117.8 133.7Q117.1 134.4 117.1 135.7L117.1 135.7L117.1 135.8Q117.1 137.0 117.8 137.7Q118.5 138.5 119.6 138.5ZM128.3 139.2L128.3 139.2Q127.3 139.2 126.6 138.8Q125.8 138.3 125.4 137.6Q125.0 136.8 125.0 135.8L125.0 135.8L125.0 135.6Q125.0 134.6 125.4 133.9Q125.8 133.1 126.6 132.7Q127.3 132.3 128.3 132.3L128.3 132.3Q129.2 132.3 129.9 132.6Q130.6 133.0 131.0 133.7Q131.4 134.5 131.4 135.5L131.4 135.5L131.4 135.9L125.8 135.9Q125.8 137.1 126.6 137.8Q127.3 138.5 128.3 138.5L128.3 138.5Q129.3 138.5 129.8 138.0Q130.3 137.6 130.5 137.0L130.5 137.0L131.3 137.3Q131.1 137.8 130.7 138.2Q130.4 138.6 129.8 138.9Q129.2 139.2 128.3 139.2ZM125.8 135.2L125.8 135.2L130.6 135.2Q130.5 134.1 129.9 133.6Q129.3 133.0 128.3 133.0L128.3 133.0Q127.3 133.0 126.6 133.6Q126.0 134.1 125.8 135.2ZM133.4 140.6L133.1 140.6L133.1 140.0L133.4 140.0Q133.9 140.0 133.9 139.6L133.9 139.6L133.9 139.1L133.7 139.1Q133.4 139.1 133.1 138.9Q132.9 138.7 132.9 138.4L132.9 138.4Q132.9 138.1 133.1 137.9Q133.4 137.7 133.7 137.7L133.7 137.7Q134.0 137.7 134.2 137.9Q134.4 138.1 134.4 138.4L134.4 138.4L134.4 139.5Q134.4 140.6 133.4 140.6L133.4 140.6ZM142.8 139.2L142.8 139.2Q141.1 139.2 140.1 138.2Q139.1 137.2 139.1 135.3L139.1 135.3L139.1 133.2Q139.1 131.3 140.1 130.3Q141.1 129.4 142.8 129.4L142.8 129.4Q144.4 129.4 145.3 130.3Q146.2 131.2 146.2 132.8L146.2 132.8L146.2 132.9L145.3 132.9L145.3 132.8Q145.3 131.6 144.7 130.9Q144.1 130.1 142.8 130.1L142.8 130.1Q141.5 130.1 140.7 130.9Q140.0 131.7 140.0 133.2L140.0 133.2L140.0 135.4Q140.0 136.8 140.7 137.6Q141.5 138.4 142.8 138.4L142.8 138.4Q144.1 138.4 144.7 137.7Q145.3 136.9 145.3 135.8L145.3 135.8L145.3 135.6L146.2 135.6L146.2 135.7Q146.2 137.3 145.3 138.3Q144.4 139.2 142.8 139.2ZM150.6 139.1L150.6 139.1Q149.9 139.1 149.3 138.8Q148.7 138.5 148.4 137.9Q148.0 137.3 148.0 136.4L148.0 136.4L148.0 132.4L148.8 132.4L148.8 136.4Q148.8 137.4 149.4 137.9Q149.9 138.4 150.8 138.4L150.8 138.4Q151.8 138.4 152.5 137.7Q153.2 137.1 153.2 135.7L153.2 135.7L153.2 132.4L154.0 132.4L154.0 139L153.2 139L153.2 137.8L153.1 137.8Q152.8 138.3 152.3 138.7Q151.7 139.1 150.6 139.1ZM157.2 139L156.4 139L156.4 132.4L157.2 132.4L157.2 133.3L157.3 133.3Q157.5 132.8 157.9 132.6Q158.3 132.4 158.9 132.4L158.9 132.4L159.7 132.4L159.7 133.2L158.8 133.2Q158.1 133.2 157.6 133.6Q157.2 134.0 157.2 134.9L157.2 134.9L157.2 139ZM163.8 139.2L163.8 139.2Q162.7 139.2 161.8 138.6Q161.0 138.1 160.8 136.7L160.8 136.7L161.6 136.6Q161.7 137.3 162.0 137.7Q162.3 138.1 162.8 138.3Q163.3 138.5 163.8 138.5L163.8 138.5Q164.6 138.5 165.1 138.2Q165.6 137.8 165.6 137.2L165.6 137.2Q165.6 136.7 165.2 136.4Q164.7 136.2 163.9 136.1L163.9 136.1L163.3 135.9Q162.7 135.8 162.2 135.6Q161.7 135.4 161.4 135.0Q161.1 134.6 161.1 134.1L161.1 134.1Q161.1 133.2 161.8 132.7Q162.4 132.3 163.6 132.3L163.6 132.3Q164.7 132.3 165.4 132.8Q166.0 133.3 166.2 134.2L166.2 134.2L165.5 134.4Q165.3 133.6 164.8 133.3Q164.3 133.0 163.6 133.0L163.6 133.0Q162.8 133.0 162.4 133.2Q161.9 133.5 161.9 134.1L161.9 134.1Q161.9 134.6 162.3 134.9Q162.7 135.1 163.4 135.2L163.4 135.2L164.1 135.3Q164.7 135.4 165.3 135.7Q165.8 135.9 166.1 136.2Q166.4 136.6 166.4 137.2L166.4 137.2Q166.4 138.2 165.7 138.7Q165.0 139.2 163.8 139.2ZM171.4 139.2L171.4 139.2Q170.4 139.2 169.6 138.8Q168.9 138.3 168.4 137.6Q168.0 136.8 168.0 135.8L168.0 135.8L168.0 135.6Q168.0 134.6 168.4 133.9Q168.9 133.1 169.6 132.7Q170.4 132.3 171.4 132.3L171.4 132.3Q172.4 132.3 173.1 132.7Q173.9 133.1 174.3 133.9Q174.7 134.6 174.7 135.6L174.7 135.6L174.7 135.8Q174.7 136.8 174.3 137.6Q173.9 138.3 173.1 138.8Q172.4 139.2 171.4 139.2ZM171.4 138.5L171.4 138.5Q172.5 138.5 173.2 137.7Q173.9 137.0 173.9 135.8L173.9 135.8L173.9 135.7Q173.9 134.5 173.2 133.7Q172.5 133.0 171.4 133.0L171.4 133.0Q170.2 133.0 169.5 133.7Q168.8 134.5 168.8 135.7L168.8 135.7L168.8 135.8Q168.8 137.0 169.5 137.7Q170.2 138.5 171.4 138.5ZM177.5 139L176.7 139L176.7 132.4L177.5 132.4L177.5 133.3L177.7 133.3Q177.9 132.8 178.2 132.6Q178.6 132.4 179.3 132.4L179.3 132.4L180.0 132.4L180.0 133.2L179.2 133.2Q178.4 133.2 178.0 133.6Q177.5 134.0 177.5 134.9L177.5 134.9L177.5 139ZM181.3 139.2L181.3 139.2Q181.0 139.2 180.8 139.0Q180.6 138.8 180.6 138.4L180.6 138.4Q180.6 138.1 180.8 137.9Q181.0 137.7 181.3 137.7L181.3 137.7Q181.7 137.7 181.9 137.9Q182.1 138.1 182.1 138.4L182.1 138.4Q182.1 138.8 181.9 139.0Q181.7 139.2 181.3 139.2ZM184.0 139.2L184.0 139.2Q183.7 139.2 183.5 139.0Q183.2 138.8 183.2 138.4L183.2 138.4Q183.2 138.1 183.5 137.9Q183.7 137.7 184.0 137.7L184.0 137.7Q184.3 137.7 184.6 137.9Q184.8 138.1 184.8 138.4L184.8 138.4Q184.8 138.8 184.6 139.0Q184.3 139.2 184.0 139.2ZM186.7 139.2L186.7 139.2Q186.3 139.2 186.1 139.0Q185.9 138.8 185.9 138.4L185.9 138.4Q185.9 138.1 186.1 137.9Q186.3 137.7 186.7 137.7L186.7 137.7Q187.0 137.7 187.2 137.9Q187.5 138.1 187.5 138.4L187.5 138.4Q187.5 138.8 187.2 139.0Q187.0 139.2 186.7 139.2Z" fill="#6E7781"></path><path d="M376.7 119L375.4 119L375.4 108.3L376.7 108.3L376.7 109.7L377.0 109.7Q377.3 109.1 378.0 108.6Q378.8 108.1 380.1 108.1L380.1 108.1Q381.4 108.1 382.2 108.7Q383.0 109.3 383.3 110.1L383.3 110.1L383.6 110.1Q384.0 109.3 384.8 108.7Q385.6 108.1 387.0 108.1L387.0 108.1Q388.1 108.1 388.9 108.5Q389.7 109.0 390.2 109.8Q390.7 110.6 390.7 111.7L390.7 111.7L390.7 119L389.3 119L389.3 111.8Q389.3 110.7 388.6 110.0Q387.9 109.3 386.7 109.3L386.7 109.3Q385.4 109.3 384.6 110.1Q383.7 110.9 383.7 112.5L383.7 112.5L383.7 119L382.4 119L382.4 111.8Q382.4 110.7 381.7 110.0Q381.0 109.3 379.7 109.3L379.7 109.3Q378.5 109.3 377.6 110.1Q376.7 110.9 376.7 112.5L376.7 112.5L376.7 119ZM399.3 119.3L399.3 119.3Q397.7 119.3 396.5 118.6Q395.3 118.0 394.6 116.7Q393.9 115.5 393.9 113.8L393.9 113.8L393.9 113.5Q393.9 111.8 394.6 110.6Q395.3 109.3 396.5 108.7Q397.7 108 399.3 108L399.3 108Q400.8 108 401.9 108.6Q403.0 109.2 403.6 110.1Q404.2 111.0 404.3 112.1L404.3 112.1L403.0 112.3Q402.9 111.5 402.5 110.8Q402.0 110.0 401.2 109.6Q400.4 109.2 399.3 109.2L399.3 109.2Q398.1 109.2 397.2 109.7Q396.3 110.3 395.7 111.2Q395.2 112.2 395.2 113.6L395.2 113.6L395.2 113.7Q395.2 115.1 395.7 116.1Q396.3 117.0 397.2 117.6Q398.1 118.1 399.3 118.1L399.3 118.1Q401.0 118.1 402.0 117.2Q402.9 116.3 403.1 115.0L403.1 115.0L404.4 115.2Q404.2 116.3 403.6 117.2Q403.0 118.1 401.9 118.7Q400.8 119.3 399.3 119.3ZM409.0 123.4L407.7 123.4L407.7 108.3L408.9 108.3L408.9 110.3L409.2 110.3Q409.7 109.4 410.6 108.7Q411.6 108 413.4 108L413.4 108Q414.8 108 416.0 108.7Q417.1 109.3 417.8 110.6Q418.5 111.8 418.5 113.5L418.5 113.5L418.5 113.8Q418.5 115.5 417.8 116.7Q417.2 118.0 416.0 118.6Q414.8 119.3 413.4 119.3L413.4 119.3Q412.2 119.3 411.4 119.0Q410.6 118.7 410.0 118.2Q409.5 117.7 409.2 117.1L409.2 117.1L409.0 117.1L409.0 123.4ZM413.1 118.1L413.1 118.1Q414.9 118.1 416.0 117.0Q417.2 115.8 417.2 113.7L417.2 113.7L417.2 113.6Q417.2 111.5 416.0 110.4Q414.9 109.2 413.1 109.2L413.1 109.2Q411.3 109.2 410.1 110.4Q409.0 111.5 409.0 113.6L409.0 113.6L409.0 113.7Q409.0 115.8 410.1 117.0Q411.3 118.1 413.1 118.1ZM426.1 119.3L426.1 119.3Q424.2 119.3 422.8 118.4Q421.4 117.5 421.1 115.3L421.1 115.3L422.4 115.1Q422.6 116.3 423.1 116.9Q423.7 117.6 424.5 117.9Q425.2 118.2 426.1 118.2L426.1 118.2Q427.4 118.2 428.2 117.6Q429.0 117.1 429.0 116.1L429.0 116.1Q429.0 115.2 428.3 114.8Q427.5 114.4 426.3 114.2L426.3 114.2L425.3 114.0Q424.2 113.9 423.4 113.5Q422.6 113.1 422.1 112.5Q421.7 111.9 421.7 111.0L421.7 111.0Q421.7 109.6 422.8 108.8Q423.9 108 425.7 108L425.7 108Q427.5 108 428.6 108.8Q429.7 109.7 430.0 111.2L430.0 111.2L428.8 111.5Q428.5 110.2 427.7 109.7Q426.9 109.1 425.7 109.1L425.7 109.1Q424.4 109.1 423.7 109.6Q423.0 110.1 423.0 111.0L423.0 111.0Q423.0 111.8 423.7 112.3Q424.3 112.7 425.5 112.9L425.5 112.9L426.5 113.0Q427.6 113.2 428.4 113.6Q429.3 113.9 429.8 114.5Q430.4 115.1 430.4 116.1L430.4 116.1Q430.4 117.7 429.2 118.5Q428.1 119.3 426.1 119.3ZM434.8 119L433.5 119L433.5 108.3L434.8 108.3L434.8 110.3L435.0 110.3Q435.4 109.4 436.3 108.8Q437.2 108.1 438.9 108.1L438.9 108.1Q440.1 108.1 441.1 108.6Q442.0 109.1 442.6 110.0Q443.2 111.0 443.2 112.5L443.2 112.5L443.2 119L441.9 119L441.9 112.6Q441.9 110.8 441.0 110.0Q440.1 109.3 438.7 109.3L438.7 109.3Q437.0 109.3 435.9 110.4Q434.8 111.5 434.8 113.7L434.8 113.7L434.8 119ZM451.8 119.3L451.8 119.3Q450.2 119.3 449.0 118.6Q447.8 117.9 447.1 116.7Q446.4 115.4 446.4 113.8L446.4 113.8L446.4 113.5Q446.4 111.9 447.1 110.6Q447.8 109.4 449.0 108.7Q450.2 108 451.8 108L451.8 108Q453.5 108 454.7 108.7Q455.9 109.4 456.6 110.6Q457.2 111.9 457.2 113.5L457.2 113.5L457.2 113.8Q457.2 115.4 456.6 116.7Q455.9 117.9 454.7 118.6Q453.5 119.3 451.8 119.3ZM451.8 118.1L451.8 118.1Q453.7 118.1 454.8 116.9Q455.9 115.7 455.9 113.7L455.9 113.7L455.9 113.6Q455.9 111.6 454.8 110.4Q453.7 109.2 451.8 109.2L451.8 109.2Q450.0 109.2 448.9 110.4Q447.7 111.6 447.7 113.6L447.7 113.6L447.7 113.7Q447.7 115.7 448.9 116.9Q450.0 118.1 451.8 118.1ZM465.5 119.3L465.5 119.3Q463.8 119.3 462.6 118.6Q461.4 117.9 460.7 116.7Q460.1 115.4 460.1 113.8L460.1 113.8L460.1 113.5Q460.1 111.9 460.7 110.6Q461.4 109.4 462.6 108.7Q463.8 108 465.5 108L465.5 108Q467.1 108 468.3 108.7Q469.5 109.4 470.2 110.6Q470.9 111.9 470.9 113.5L470.9 113.5L470.9 113.8Q470.9 115.4 470.2 116.7Q469.5 117.9 468.3 118.6Q467.1 119.3 465.5 119.3ZM465.5 118.1L465.5 118.1Q467.4 118.1 468.5 116.9Q469.6 115.7 469.6 113.7L469.6 113.7L469.6 113.6Q469.6 111.6 468.5 110.4Q467.4 109.2 465.5 109.2L465.5 109.2Q463.6 109.2 462.5 110.4Q461.4 111.6 461.4 113.6L461.4 113.6L461.4 113.7Q461.4 115.7 462.5 116.9Q463.6 118.1 465.5 118.1ZM475.6 123.4L474.2 123.4L474.2 108.3L475.5 108.3L475.5 110.3L475.8 110.3Q476.2 109.4 477.2 108.7Q478.2 108 480.0 108L480.0 108Q481.4 108 482.5 108.7Q483.7 109.3 484.4 110.6Q485.1 111.8 485.1 113.5L485.1 113.5L485.1 113.8Q485.1 115.5 484.4 116.7Q483.7 118.0 482.6 118.6Q481.4 119.3 480.0 119.3L480.0 119.3Q478.8 119.3 478.0 119.0Q477.1 118.7 476.6 118.2Q476.1 117.7 475.8 117.1L475.8 117.1L475.6 117.1L475.6 123.4ZM479.6 118.1L479.6 118.1Q481.5 118.1 482.6 117.0Q483.7 115.8 483.7 113.7L483.7 113.7L483.7 113.6Q483.7 111.5 482.6 110.4Q481.5 109.2 479.6 109.2L479.6 109.2Q477.8 109.2 476.7 110.4Q475.6 111.5 475.6 113.6L475.6 113.6L475.6 113.7Q475.6 115.8 476.7 117.0Q477.8 118.1 479.6 118.1Z" fill="#1F2328" stroke="#1F2328" stroke-width="0.66" stroke-linejoin="round"></path><path d="M379.6 139L377.9 139Q377.3 139 377.1 138.7Q376.8 138.5 376.8 138.0L376.8 138.0L376.8 133.2L374.7 133.2L374.7 132.4L376.8 132.4L376.8 130.0L377.6 130.0L377.6 132.4L379.9 132.4L379.9 133.2L377.6 133.2L377.6 137.9Q377.6 138.3 378.0 138.3L378.0 138.3L379.6 138.3L379.6 139ZM382.5 139L381.7 139L381.7 132.4L382.5 132.4L382.5 133.3L382.7 133.3Q382.9 132.8 383.2 132.6Q383.6 132.4 384.3 132.4L384.3 132.4L385.0 132.4L385.0 133.2L384.2 133.2Q383.4 133.2 383.0 133.6Q382.5 134.0 382.5 134.9L382.5 134.9L382.5 139ZM388.5 139.2L388.5 139.2Q387.8 139.2 387.2 139.0Q386.7 138.7 386.3 138.3Q386.0 137.8 386.0 137.2L386.0 137.2Q386.0 136.5 386.3 136.1Q386.7 135.6 387.2 135.4Q387.8 135.2 388.4 135.2L388.4 135.2L390.8 135.2L390.8 134.7Q390.8 133.9 390.4 133.4Q389.9 133.0 389.0 133.0L389.0 133.0Q388.2 133.0 387.7 133.4Q387.2 133.8 387.0 134.5L387.0 134.5L386.2 134.3Q386.4 133.7 386.7 133.3Q387.1 132.8 387.7 132.5Q388.2 132.3 389.0 132.3L389.0 132.3Q390.3 132.3 391.0 132.9Q391.7 133.5 391.7 134.7L391.7 134.7L391.7 137.9Q391.7 138.3 392.0 138.3L392.0 138.3L392.7 138.3L392.7 139L391.8 139Q391.4 139 391.1 138.8Q390.9 138.5 390.9 138.1L390.9 138.1L390.9 138.0L390.8 138.0Q390.6 138.3 390.3 138.6Q390.0 138.8 389.6 139.0Q389.1 139.2 388.5 139.2ZM388.5 138.5L388.5 138.5Q389.6 138.5 390.2 137.8Q390.8 137.2 390.8 136.1L390.8 136.1L390.8 135.9L388.5 135.9Q387.8 135.9 387.3 136.2Q386.8 136.5 386.8 137.1L386.8 137.1Q386.8 137.8 387.3 138.1Q387.8 138.5 388.5 138.5ZM395.0 139L394.2 139L394.2 132.4L395.0 132.4L395.0 133.7L395.1 133.7Q395.4 133.1 395.9 132.7Q396.5 132.3 397.6 132.3L397.6 132.3Q398.3 132.3 398.9 132.6Q399.5 132.9 399.8 133.5Q400.2 134.1 400.2 135.0L400.2 135.0L400.2 139L399.4 139L399.4 135.1Q399.4 134.0 398.8 133.5Q398.3 133.0 397.4 133.0L397.4 133.0Q396.4 133.0 395.7 133.7Q395.0 134.4 395.0 135.7L395.0 135.7L395.0 139ZM405.1 139.2L405.1 139.2Q403.9 139.2 403.0 138.6Q402.2 138.1 402.0 136.7L402.0 136.7L402.8 136.6Q402.9 137.3 403.2 137.7Q403.6 138.1 404.1 138.3Q404.5 138.5 405.1 138.5L405.1 138.5Q405.9 138.5 406.4 138.2Q406.9 137.8 406.9 137.2L406.9 137.2Q406.9 136.7 406.4 136.4Q405.9 136.2 405.2 136.1L405.2 136.1L404.5 135.9Q403.9 135.8 403.4 135.6Q402.9 135.4 402.6 135.0Q402.3 134.6 402.3 134.1L402.3 134.1Q402.3 133.2 403.0 132.7Q403.7 132.3 404.8 132.3L404.8 132.3Q405.9 132.3 406.6 132.8Q407.3 133.3 407.4 134.2L407.4 134.2L406.7 134.4Q406.6 133.6 406.1 133.3Q405.5 133.0 404.8 133.0L404.8 133.0Q404.0 133.0 403.6 133.2Q403.2 133.5 403.2 134.1L403.2 134.1Q403.2 134.6 403.6 134.9Q404.0 135.1 404.7 135.2L404.7 135.2L405.3 135.3Q406.0 135.4 406.5 135.7Q407.0 135.9 407.4 136.2Q407.7 136.6 407.7 137.2L407.7 137.2Q407.7 138.2 407.0 138.7Q406.3 139.2 405.1 139.2ZM410.4 141.7L409.6 141.7L409.6 132.4L410.4 132.4L410.4 133.6L410.5 133.6Q410.8 133.1 411.4 132.7Q412.0 132.3 413.1 132.3L413.1 132.3Q414.0 132.3 414.7 132.7Q415.4 133.1 415.8 133.8Q416.3 134.6 416.3 135.6L416.3 135.6L416.3 135.8Q416.3 136.8 415.8 137.6Q415.4 138.4 414.7 138.8Q414.0 139.2 413.1 139.2L413.1 139.2Q412.4 139.2 411.9 139.0Q411.4 138.8 411.1 138.5Q410.7 138.2 410.6 137.9L410.6 137.9L410.4 137.9L410.4 141.7ZM412.9 138.5L412.9 138.5Q414.0 138.5 414.7 137.7Q415.4 137.0 415.4 135.8L415.4 135.8L415.4 135.7Q415.4 134.4 414.7 133.7Q414.0 133.0 412.9 133.0L412.9 133.0Q411.8 133.0 411.1 133.7Q410.4 134.4 410.4 135.7L410.4 135.7L410.4 135.8Q410.4 137.0 411.1 137.7Q411.8 138.5 412.9 138.5ZM420.3 139.2L420.3 139.2Q419.6 139.2 419.1 139.0Q418.5 138.7 418.2 138.3Q417.9 137.8 417.9 137.2L417.9 137.2Q417.9 136.5 418.2 136.1Q418.5 135.6 419.1 135.4Q419.6 135.2 420.3 135.2L420.3 135.2L422.7 135.2L422.7 134.7Q422.7 133.9 422.2 133.4Q421.8 133.0 420.9 133.0L420.9 133.0Q420.0 133.0 419.5 133.4Q419.0 133.8 418.9 134.5L418.9 134.5L418.1 134.3Q418.2 133.7 418.6 133.3Q418.9 132.8 419.5 132.5Q420.1 132.3 420.9 132.3L420.9 132.3Q422.1 132.3 422.8 132.9Q423.5 133.5 423.5 134.7L423.5 134.7L423.5 137.9Q423.5 138.3 423.9 138.3L423.9 138.3L424.5 138.3L424.5 139L423.7 139Q423.2 139 423.0 138.8Q422.8 138.5 422.8 138.1L422.8 138.1L422.8 138.0L422.6 138.0Q422.4 138.3 422.2 138.6Q421.9 138.8 421.4 139.0Q421.0 139.2 420.3 139.2ZM420.4 138.5L420.4 138.5Q421.4 138.5 422.1 137.8Q422.7 137.2 422.7 136.1L422.7 136.1L422.7 135.9L420.3 135.9Q419.6 135.9 419.1 136.2Q418.7 136.5 418.7 137.1L418.7 137.1Q418.7 137.8 419.2 138.1Q419.6 138.5 420.4 138.5ZM426.9 139L426.1 139L426.1 132.4L426.8 132.4L426.8 133.3L427.0 133.3Q427.2 132.8 427.6 132.6Q427.9 132.4 428.6 132.4L428.6 132.4L429.4 132.4L429.4 133.2L428.5 133.2Q427.8 133.2 427.3 133.6Q426.9 134.0 426.9 134.9L426.9 134.9L426.9 139ZM433.8 139.2L433.8 139.2Q432.8 139.2 432.1 138.8Q431.3 138.3 430.9 137.6Q430.5 136.8 430.5 135.8L430.5 135.8L430.5 135.6Q430.5 134.6 430.9 133.9Q431.3 133.1 432.1 132.7Q432.8 132.3 433.7 132.3L433.7 132.3Q434.7 132.3 435.4 132.6Q436.1 133.0 436.5 133.7Q436.9 134.5 436.9 135.5L436.9 135.5L436.9 135.9L431.3 135.9Q431.3 137.1 432.0 137.8Q432.7 138.5 433.8 138.5L433.8 138.5Q434.7 138.5 435.3 138.0Q435.8 137.6 436.0 137.0L436.0 137.0L436.8 137.3Q436.6 137.8 436.2 138.2Q435.8 138.6 435.3 138.9Q434.7 139.2 433.8 139.2ZM431.3 135.2L431.3 135.2L436.1 135.2Q436.0 134.1 435.4 133.6Q434.7 133.0 433.7 133.0L433.7 133.0Q432.7 133.0 432.1 133.6Q431.5 134.1 431.3 135.2ZM439.7 139L438.9 139L438.9 132.4L439.7 132.4L439.7 133.7L439.8 133.7Q440.1 133.1 440.6 132.7Q441.2 132.3 442.2 132.3L442.2 132.3Q442.9 132.3 443.5 132.6Q444.1 132.9 444.5 133.5Q444.8 134.1 444.8 135.0L444.8 135.0L444.8 139L444.0 139L444.0 135.1Q444.0 134.0 443.5 133.5Q443.0 133.0 442.0 133.0L442.0 133.0Q441.0 133.0 440.4 133.7Q439.7 134.4 439.7 135.7L439.7 135.7L439.7 139ZM451.0 139L449.3 139Q448.8 139 448.5 138.7Q448.3 138.5 448.3 138.0L448.3 138.0L448.3 133.2L446.2 133.2L446.2 132.4L448.3 132.4L448.3 130.0L449.1 130.0L449.1 132.4L451.4 132.4L451.4 133.2L449.1 133.2L449.1 137.9Q449.1 138.3 449.5 138.3L449.5 138.3L451.0 138.3L451.0 139ZM459.3 139.2L459.3 139.2Q458.1 139.2 457.2 138.6Q456.4 138.1 456.2 136.7L456.2 136.7L457.0 136.6Q457.1 137.3 457.4 137.7Q457.8 138.1 458.3 138.3Q458.7 138.5 459.3 138.5L459.3 138.5Q460.1 138.5 460.6 138.2Q461.1 137.8 461.1 137.2L461.1 137.2Q461.1 136.7 460.6 136.4Q460.1 136.2 459.4 136.1L459.4 136.1L458.7 135.9Q458.1 135.8 457.6 135.6Q457.1 135.4 456.8 135.0Q456.5 134.6 456.5 134.1L456.5 134.1Q456.5 133.2 457.2 132.7Q457.9 132.3 459.0 132.3L459.0 132.3Q460.1 132.3 460.8 132.8Q461.5 133.3 461.7 134.2L461.7 134.2L460.9 134.4Q460.8 133.6 460.3 133.3Q459.7 133.0 459.0 133.0L459.0 133.0Q458.2 133.0 457.8 133.2Q457.4 133.5 457.4 134.1L457.4 134.1Q457.4 134.6 457.8 134.9Q458.2 135.1 458.9 135.2L458.9 135.2L459.5 135.3Q460.2 135.4 460.7 135.7Q461.2 135.9 461.6 136.2Q461.9 136.6 461.9 137.2L461.9 137.2Q461.9 138.2 461.2 138.7Q460.5 139.2 459.3 139.2ZM464.6 139L463.8 139L463.8 129.6L464.6 129.6L464.6 133.6L464.8 133.6Q464.9 133.3 465.2 133.0Q465.5 132.7 466.0 132.5Q466.4 132.3 467.1 132.3L467.1 132.3Q467.9 132.3 468.5 132.6Q469.0 132.9 469.4 133.5Q469.8 134.1 469.8 135.0L469.8 135.0L469.8 139L469.0 139L469.0 135.1Q469.0 134.0 468.4 133.5Q467.9 133.0 467.0 133.0L467.0 133.0Q466.0 133.0 465.3 133.7Q464.6 134.4 464.6 135.7L464.6 135.7L464.6 139ZM472.9 139L472.1 139L472.1 132.4L472.9 132.4L472.9 139ZM472.5 131.3L472.5 131.3Q472.2 131.3 472.0 131.1Q471.8 130.9 471.8 130.6L471.8 130.6Q471.8 130.3 472.0 130.1Q472.2 129.9 472.5 129.9L472.5 129.9Q472.8 129.9 473.0 130.1Q473.2 130.3 473.2 130.6L473.2 130.6Q473.2 130.9 473.0 131.1Q472.8 131.3 472.5 131.3ZM476.1 139L475.2 139L475.2 132.4L476.0 132.4L476.0 133.3L476.2 133.3Q476.4 132.9 476.8 132.6Q477.3 132.3 478.1 132.3L478.1 132.3Q478.9 132.3 479.4 132.7Q479.9 133.0 480.1 133.5L480.1 133.5L480.3 133.5Q480.5 133.0 481.0 132.7Q481.5 132.3 482.3 132.3L482.3 132.3Q483.0 132.3 483.5 132.6Q484.0 132.9 484.3 133.4Q484.6 133.8 484.6 134.5L484.6 134.5L484.6 139L483.8 139L483.8 134.6Q483.8 133.9 483.4 133.5Q482.9 133.0 482.2 133.0L482.2 133.0Q481.4 133.0 480.8 133.5Q480.3 134.0 480.3 135.0L480.3 135.0L480.3 139L479.5 139L479.5 134.6Q479.5 133.9 479.1 133.5Q478.7 133.0 477.9 133.0L477.9 133.0Q477.1 133.0 476.6 133.5Q476.1 134.0 476.1 135.0L476.1 135.0L476.1 139Z" fill="#6E7781"></path><path d="M666.6 119L665.2 119L665.2 103.6L668.0 103.6L672.7 118.2L672.9 118.2L677.6 103.6L680.3 103.6L680.3 119L679.0 119L679.0 104.4L678.7 104.4L674.0 119L671.5 119L666.9 104.4L666.6 104.4L666.6 119ZM689.6 119.3L689.6 119.3Q686.9 119.3 685.2 117.7Q683.6 116.1 683.6 113.0L683.6 113.0L683.6 109.6Q683.6 106.5 685.2 104.9Q686.9 103.3 689.6 103.3L689.6 103.3Q692.3 103.3 693.7 104.8Q695.1 106.3 695.1 108.9L695.1 108.9L695.1 109.0L693.7 109.0L693.7 108.9Q693.7 107.0 692.7 105.8Q691.7 104.6 689.6 104.6L689.6 104.6Q687.4 104.6 686.2 105.9Q685.0 107.2 685.0 109.5L685.0 109.5L685.0 113.1Q685.0 115.4 686.2 116.7Q687.4 118.0 689.6 118.0L689.6 118.0Q691.7 118.0 692.7 116.8Q693.7 115.6 693.7 113.7L693.7 113.7L693.7 113.4L695.1 113.4L695.1 113.7Q695.1 116.3 693.7 117.8Q692.3 119.3 689.6 119.3ZM699.6 119L698.2 119L698.2 103.6L703.9 103.6Q705.3 103.6 706.4 104.1Q707.5 104.6 708.1 105.6Q708.7 106.6 708.7 108.0L708.7 108.0L708.7 108.2Q708.7 109.6 708.1 110.6Q707.4 111.6 706.3 112.1Q705.3 112.6 703.9 112.6L703.9 112.6L699.6 112.6L699.6 119ZM699.6 104.9L699.6 111.3L703.8 111.3Q705.4 111.3 706.4 110.5Q707.3 109.7 707.3 108.2L707.3 108.2L707.3 108.0Q707.3 106.5 706.4 105.7Q705.5 104.9 703.8 104.9L703.8 104.9L699.6 104.9ZM721.4 119.3L721.4 119.3Q719.4 119.3 718.1 118.4Q716.7 117.5 716.4 115.3L716.4 115.3L717.7 115.1Q717.9 116.3 718.4 116.9Q718.9 117.6 719.7 117.9Q720.5 118.2 721.4 118.2L721.4 118.2Q722.7 118.2 723.5 117.6Q724.3 117.1 724.3 116.1L724.3 116.1Q724.3 115.2 723.6 114.8Q722.8 114.4 721.5 114.2L721.5 114.2L720.5 114.0Q719.5 113.9 718.7 113.5Q717.9 113.1 717.4 112.5Q716.9 111.9 716.9 111.0L716.9 111.0Q716.9 109.6 718.0 108.8Q719.1 108 720.9 108L720.9 108Q722.7 108 723.9 108.8Q725.0 109.7 725.3 111.2L725.3 111.2L724.0 111.5Q723.8 110.2 723.0 109.7Q722.2 109.1 720.9 109.1L720.9 109.1Q719.7 109.1 719.0 109.6Q718.3 110.1 718.3 111.0L718.3 111.0Q718.3 111.8 718.9 112.3Q719.6 112.7 720.7 112.9L720.7 112.9L721.7 113.0Q722.8 113.2 723.7 113.6Q724.6 113.9 725.1 114.5Q725.6 115.1 725.6 116.1L725.6 116.1Q725.6 117.7 724.5 118.5Q723.3 119.3 721.4 119.3ZM733.7 119.3L733.7 119.3Q732.0 119.3 730.8 118.6Q729.6 117.9 728.9 116.7Q728.2 115.4 728.2 113.8L728.2 113.8L728.2 113.5Q728.2 111.9 728.9 110.6Q729.6 109.4 730.8 108.7Q732.0 108 733.5 108L733.5 108Q735.0 108 736.2 108.6Q737.3 109.3 738.0 110.4Q738.7 111.6 738.7 113.2L738.7 113.2L738.7 113.9L729.5 113.9Q729.6 115.9 730.8 117.0Q731.9 118.1 733.7 118.1L733.7 118.1Q735.2 118.1 736.0 117.4Q736.8 116.8 737.3 115.8L737.3 115.8L738.5 116.3Q738.1 117.0 737.5 117.7Q737.0 118.4 736.0 118.9Q735.1 119.3 733.7 119.3ZM729.6 112.8L729.6 112.8L737.3 112.8Q737.2 111.1 736.2 110.1Q735.2 109.2 733.5 109.2L733.5 109.2Q731.9 109.2 730.9 110.1Q729.8 111.1 729.6 112.8ZM743.2 119L741.9 119L741.9 108.3L743.2 108.3L743.2 109.7L743.4 109.7Q743.8 108.9 744.4 108.6Q745.0 108.3 746.0 108.3L746.0 108.3L747.3 108.3L747.3 109.5L745.9 109.5Q744.7 109.5 744.0 110.2Q743.2 110.9 743.2 112.3L743.2 112.3L743.2 119ZM755.0 119L752.9 119L748.9 108.3L750.3 108.3L753.9 118.0L754.1 118.0L757.6 108.3L759.0 108.3L755.0 119ZM766.2 119.3L766.2 119.3Q764.6 119.3 763.4 118.6Q762.2 117.9 761.5 116.7Q760.8 115.4 760.8 113.8L760.8 113.8L760.8 113.5Q760.8 111.9 761.5 110.6Q762.2 109.4 763.3 108.7Q764.5 108 766.1 108L766.1 108Q767.6 108 768.7 108.6Q769.9 109.3 770.6 110.4Q771.2 111.6 771.2 113.2L771.2 113.2L771.2 113.9L762.1 113.9Q762.2 115.9 763.3 117.0Q764.5 118.1 766.2 118.1L766.2 118.1Q767.7 118.1 768.6 117.4Q769.4 116.8 769.8 115.8L769.8 115.8L771.0 116.3Q770.7 117.0 770.1 117.7Q769.5 118.4 768.6 118.9Q767.7 119.3 766.2 119.3ZM762.1 112.8L762.1 112.8L769.9 112.8Q769.8 111.1 768.8 110.1Q767.7 109.2 766.1 109.2L766.1 109.2Q764.5 109.2 763.4 110.1Q762.4 111.1 762.1 112.8ZM775.8 119L774.5 119L774.5 108.3L775.7 108.3L775.7 109.7L776.0 109.7Q776.3 108.9 776.9 108.6Q777.5 108.3 778.6 108.3L778.6 108.3L779.9 108.3L779.9 109.5L778.5 109.5Q777.2 109.5 776.5 110.2Q775.8 110.9 775.8 112.3L775.8 112.3L775.8 119Z" fill="#1F2328" stroke="#1F2328" stroke-width="0.66" stroke-linejoin="round"></path><path d="M686.0 141.7L682.0 141.7L682.0 141.0L685.8 141.0Q686.2 141.0 686.2 140.6L686.2 140.6L686.2 137.9L686.1 137.9Q685.9 138.2 685.6 138.5Q685.3 138.8 684.9 139.0Q684.4 139.1 683.7 139.1L683.7 139.1Q683.0 139.1 682.4 138.8Q681.8 138.5 681.4 137.9Q681.1 137.4 681.1 136.4L681.1 136.4L681.1 132.4L681.9 132.4L681.9 136.4Q681.9 137.5 682.4 137.9Q683.0 138.4 683.9 138.4L683.9 138.4Q684.9 138.4 685.6 137.7Q686.2 137.1 686.2 135.7L686.2 135.7L686.2 132.4L687.0 132.4L687.0 140.7Q687.0 141.2 686.8 141.4Q686.5 141.7 686.0 141.7L686.0 141.7ZM692.4 139.2L692.4 139.2Q691.4 139.2 690.7 138.8Q689.9 138.3 689.5 137.6Q689.1 136.8 689.1 135.8L689.1 135.8L689.1 135.6Q689.1 134.6 689.5 133.9Q689.9 133.1 690.7 132.7Q691.4 132.3 692.4 132.3L692.4 132.3Q693.4 132.3 694.2 132.7Q694.9 133.1 695.3 133.9Q695.7 134.6 695.7 135.6L695.7 135.6L695.7 135.8Q695.7 136.8 695.3 137.6Q694.9 138.3 694.2 138.8Q693.4 139.2 692.4 139.2ZM692.4 138.5L692.4 138.5Q693.6 138.5 694.3 137.7Q694.9 137.0 694.9 135.8L694.9 135.8L694.9 135.7Q694.9 134.5 694.3 133.7Q693.6 133.0 692.4 133.0L692.4 133.0Q691.3 133.0 690.6 133.7Q689.9 134.5 689.9 135.7L689.9 135.7L689.9 135.8Q689.9 137.0 690.6 137.7Q691.3 138.5 692.4 138.5ZM700.3 139.1L700.3 139.1Q699.6 139.1 699.0 138.8Q698.4 138.5 698.1 137.9Q697.7 137.3 697.7 136.4L697.7 136.4L697.7 132.4L698.5 132.4L698.5 136.4Q698.5 137.4 699.1 137.9Q699.6 138.4 700.5 138.4L700.5 138.4Q701.5 138.4 702.2 137.7Q702.9 137.1 702.9 135.7L702.9 135.7L702.9 132.4L703.7 132.4L703.7 139L702.9 139L702.9 137.8L702.7 137.8Q702.5 138.3 701.9 138.7Q701.4 139.1 700.3 139.1ZM706.9 139L706.0 139L706.0 132.4L706.8 132.4L706.8 133.3L707.0 133.3Q707.2 132.8 707.5 132.6Q707.9 132.4 708.6 132.4L708.6 132.4L709.4 132.4L709.4 133.2L708.5 133.2Q707.7 133.2 707.3 133.6Q706.9 134.0 706.9 134.9L706.9 134.9L706.9 139ZM713.5 139.2L713.5 139.2Q712.3 139.2 711.5 138.6Q710.6 138.1 710.4 136.7L710.4 136.7L711.2 136.6Q711.3 137.3 711.7 137.7Q712.0 138.1 712.5 138.3Q713.0 138.5 713.5 138.5L713.5 138.5Q714.3 138.5 714.8 138.2Q715.3 137.8 715.3 137.2L715.3 137.2Q715.3 136.7 714.8 136.4Q714.4 136.2 713.6 136.1L713.6 136.1L713.0 135.9Q712.4 135.8 711.9 135.6Q711.4 135.4 711.1 135.0Q710.8 134.6 710.8 134.1L710.8 134.1Q710.8 133.2 711.4 132.7Q712.1 132.3 713.2 132.3L713.2 132.3Q714.3 132.3 715.0 132.8Q715.7 133.3 715.9 134.2L715.9 134.2L715.1 134.4Q715.0 133.6 714.5 133.3Q714.0 133.0 713.2 133.0L713.2 133.0Q712.5 133.0 712.0 133.2Q711.6 133.5 711.6 134.1L711.6 134.1Q711.6 134.6 712.0 134.9Q712.4 135.1 713.1 135.2L713.1 135.2L713.7 135.3Q714.4 135.4 714.9 135.7Q715.5 135.9 715.8 136.2Q716.1 136.6 716.1 137.2L716.1 137.2Q716.1 138.2 715.4 138.7Q714.7 139.2 713.5 139.2ZM718.2 140.6L717.8 140.6L717.8 140.0L718.2 140.0Q718.6 140.0 718.6 139.6L718.6 139.6L718.6 139.1L718.4 139.1Q718.1 139.1 717.9 138.9Q717.7 138.7 717.7 138.4L717.7 138.4Q717.7 138.1 717.9 137.9Q718.1 137.7 718.4 137.7L718.4 137.7Q718.7 137.7 719.0 137.9Q719.2 138.1 719.2 138.4L719.2 138.4L719.2 139.5Q719.2 140.6 718.2 140.6L718.2 140.6ZM727.2 139.2L727.2 139.2Q726.2 139.2 725.5 138.8Q724.7 138.3 724.3 137.6Q723.9 136.8 723.9 135.8L723.9 135.8L723.9 135.6Q723.9 134.6 724.3 133.9Q724.7 133.1 725.5 132.7Q726.2 132.3 727.2 132.3L727.2 132.3Q728.2 132.3 729.0 132.7Q729.7 133.1 730.1 133.9Q730.5 134.6 730.5 135.6L730.5 135.6L730.5 135.8Q730.5 136.8 730.1 137.6Q729.7 138.3 729.0 138.8Q728.2 139.2 727.2 139.2ZM727.2 138.5L727.2 138.5Q728.4 138.5 729.0 137.7Q729.7 137.0 729.7 135.8L729.7 135.8L729.7 135.7Q729.7 134.5 729.0 133.7Q728.4 133.0 727.2 133.0L727.2 133.0Q726.1 133.0 725.4 133.7Q724.7 134.5 724.7 135.7L724.7 135.7L724.7 135.8Q724.7 137.0 725.4 137.7Q726.1 138.5 727.2 138.5ZM733.4 139L732.6 139L732.6 132.4L733.4 132.4L733.4 133.3L733.5 133.3Q733.7 132.8 734.1 132.6Q734.5 132.4 735.1 132.4L735.1 132.4L735.9 132.4L735.9 133.2L735.0 133.2Q734.3 133.2 733.8 133.6Q733.4 134.0 733.4 134.9L733.4 134.9L733.4 139ZM743.1 139.2L743.1 139.2Q742.4 139.2 741.8 139.0Q741.3 138.7 740.9 138.3Q740.6 137.8 740.6 137.2L740.6 137.2Q740.6 136.5 740.9 136.1Q741.3 135.6 741.8 135.4Q742.4 135.2 743.0 135.2L743.0 135.2L745.4 135.2L745.4 134.7Q745.4 133.9 745.0 133.4Q744.5 133.0 743.6 133.0L743.6 133.0Q742.8 133.0 742.3 133.4Q741.8 133.8 741.6 134.5L741.6 134.5L740.8 134.3Q741.0 133.7 741.3 133.3Q741.7 132.8 742.3 132.5Q742.8 132.3 743.6 132.3L743.6 132.3Q744.9 132.3 745.6 132.9Q746.2 133.5 746.2 134.7L746.2 134.7L746.2 137.9Q746.2 138.3 746.6 138.3L746.6 138.3L747.3 138.3L747.3 139L746.4 139Q746.0 139 745.7 138.8Q745.5 138.5 745.5 138.1L745.5 138.1L745.5 138.0L745.4 138.0Q745.2 138.3 744.9 138.6Q744.6 138.8 744.2 139.0Q743.7 139.2 743.1 139.2ZM743.1 138.5L743.1 138.5Q744.2 138.5 744.8 137.8Q745.4 137.2 745.4 136.1L745.4 136.1L745.4 135.9L743.0 135.9Q742.3 135.9 741.9 136.2Q741.4 136.5 741.4 137.1L741.4 137.1Q741.4 137.8 741.9 138.1Q742.4 138.5 743.1 138.5ZM749.6 139L748.8 139L748.8 132.4L749.6 132.4L749.6 133.7L749.7 133.7Q750.0 133.1 750.5 132.7Q751.1 132.3 752.1 132.3L752.1 132.3Q752.9 132.3 753.5 132.6Q754.0 132.9 754.4 133.5Q754.8 134.1 754.8 135.0L754.8 135.0L754.8 139L754.0 139L754.0 135.1Q754.0 134.0 753.4 133.5Q752.9 133.0 752.0 133.0L752.0 133.0Q751.0 133.0 750.3 133.7Q749.6 134.4 749.6 135.7L749.6 135.7L749.6 139ZM761.8 141.7L757.8 141.7L757.8 141.0L761.6 141.0Q762.0 141.0 762.0 140.6L762.0 140.6L762.0 137.9L761.9 137.9Q761.7 138.2 761.4 138.5Q761.1 138.8 760.6 139.0Q760.2 139.1 759.5 139.1L759.5 139.1Q758.8 139.1 758.2 138.8Q757.6 138.5 757.2 137.9Q756.9 137.4 756.9 136.4L756.9 136.4L756.9 132.4L757.7 132.4L757.7 136.4Q757.7 137.5 758.2 137.9Q758.7 138.4 759.7 138.4L759.7 138.4Q760.7 138.4 761.3 137.7Q762.0 137.1 762.0 135.7L762.0 135.7L762.0 132.4L762.8 132.4L762.8 140.7Q762.8 141.2 762.6 141.4Q762.3 141.7 761.8 141.7L761.8 141.7Z" fill="#6E7781"></path><path d="M376.7 325L375.4 325L375.4 314.3L376.7 314.3L376.7 315.7L377.0 315.7Q377.3 315.1 378.0 314.6Q378.8 314.1 380.1 314.1L380.1 314.1Q381.4 314.1 382.2 314.7Q383.0 315.3 383.3 316.1L383.3 316.1L383.6 316.1Q384.0 315.3 384.8 314.7Q385.6 314.1 387.0 314.1L387.0 314.1Q388.1 314.1 388.9 314.5Q389.7 315.0 390.2 315.8Q390.7 316.6 390.7 317.7L390.7 317.7L390.7 325L389.3 325L389.3 317.8Q389.3 316.7 388.6 316.0Q387.9 315.3 386.7 315.3L386.7 315.3Q385.4 315.3 384.6 316.1Q383.7 316.9 383.7 318.5L383.7 318.5L383.7 325L382.4 325L382.4 317.8Q382.4 316.7 381.7 316.0Q381.0 315.3 379.7 315.3L379.7 315.3Q378.5 315.3 377.6 316.1Q376.7 316.9 376.7 318.5L376.7 318.5L376.7 325ZM399.3 325.3L399.3 325.3Q397.7 325.3 396.5 324.6Q395.3 324.0 394.6 322.7Q393.9 321.5 393.9 319.8L393.9 319.8L393.9 319.5Q393.9 317.8 394.6 316.6Q395.3 315.3 396.5 314.7Q397.7 314 399.3 314L399.3 314Q400.8 314 401.9 314.6Q403.0 315.2 403.6 316.1Q404.2 317.0 404.3 318.1L404.3 318.1L403.0 318.3Q402.9 317.5 402.5 316.8Q402.0 316.0 401.2 315.6Q400.4 315.2 399.3 315.2L399.3 315.2Q398.1 315.2 397.2 315.7Q396.3 316.3 395.7 317.2Q395.2 318.2 395.2 319.6L395.2 319.6L395.2 319.7Q395.2 321.1 395.7 322.1Q396.3 323.0 397.2 323.6Q398.1 324.1 399.3 324.1L399.3 324.1Q401.0 324.1 402.0 323.2Q402.9 322.3 403.1 321.0L403.1 321.0L404.4 321.2Q404.2 322.3 403.6 323.2Q403.0 324.1 401.9 324.7Q400.8 325.3 399.3 325.3ZM409.0 329.4L407.7 329.4L407.7 314.3L408.9 314.3L408.9 316.3L409.2 316.3Q409.7 315.4 410.6 314.7Q411.6 314 413.4 314L413.4 314Q414.8 314 416.0 314.7Q417.1 315.3 417.8 316.6Q418.5 317.8 418.5 319.5L418.5 319.5L418.5 319.8Q418.5 321.5 417.8 322.7Q417.2 324.0 416.0 324.6Q414.8 325.3 413.4 325.3L413.4 325.3Q412.2 325.3 411.4 325.0Q410.6 324.7 410.0 324.2Q409.5 323.7 409.2 323.1L409.2 323.1L409.0 323.1L409.0 329.4ZM413.1 324.1L413.1 324.1Q414.9 324.1 416.0 323.0Q417.2 321.8 417.2 319.7L417.2 319.7L417.2 319.6Q417.2 317.5 416.0 316.4Q414.9 315.2 413.1 315.2L413.1 315.2Q411.3 315.2 410.1 316.4Q409.0 317.5 409.0 319.6L409.0 319.6L409.0 319.7Q409.0 321.8 410.1 323.0Q411.3 324.1 413.1 324.1ZM426.1 325.3L426.1 325.3Q424.2 325.3 422.8 324.4Q421.4 323.5 421.1 321.3L421.1 321.3L422.4 321.1Q422.6 322.3 423.1 322.9Q423.7 323.6 424.5 323.9Q425.2 324.2 426.1 324.2L426.1 324.2Q427.4 324.2 428.2 323.6Q429.0 323.1 429.0 322.1L429.0 322.1Q429.0 321.2 428.3 320.8Q427.5 320.4 426.3 320.2L426.3 320.2L425.3 320.0Q424.2 319.9 423.4 319.5Q422.6 319.1 422.1 318.5Q421.7 317.9 421.7 317.0L421.7 317.0Q421.7 315.6 422.8 314.8Q423.9 314 425.7 314L425.7 314Q427.5 314 428.6 314.8Q429.7 315.6 430.0 317.2L430.0 317.2L428.8 317.5Q428.5 316.2 427.7 315.7Q426.9 315.1 425.7 315.1L425.7 315.1Q424.4 315.1 423.7 315.6Q423.0 316.1 423.0 317.0L423.0 317.0Q423.0 317.9 423.7 318.3Q424.3 318.7 425.5 318.9L425.5 318.9L426.5 319.0Q427.6 319.2 428.4 319.6Q429.3 319.9 429.8 320.5Q430.4 321.1 430.4 322.1L430.4 322.1Q430.4 323.7 429.2 324.5Q428.1 325.3 426.1 325.3ZM434.8 325L433.5 325L433.5 314.3L434.8 314.3L434.8 316.3L435.0 316.3Q435.4 315.4 436.3 314.8Q437.2 314.1 438.9 314.1L438.9 314.1Q440.1 314.1 441.1 314.6Q442.0 315.1 442.6 316.0Q443.2 317.0 443.2 318.5L443.2 318.5L443.2 325L441.9 325L441.9 318.6Q441.9 316.8 441.0 316.0Q440.1 315.3 438.7 315.3L438.7 315.3Q437.0 315.3 435.9 316.4Q434.8 317.5 434.8 319.7L434.8 319.7L434.8 325ZM451.8 325.3L451.8 325.3Q450.2 325.3 449.0 324.6Q447.8 323.9 447.1 322.7Q446.4 321.4 446.4 319.8L446.4 319.8L446.4 319.5Q446.4 317.9 447.1 316.6Q447.8 315.4 449.0 314.7Q450.2 314 451.8 314L451.8 314Q453.5 314 454.7 314.7Q455.9 315.4 456.6 316.6Q457.2 317.9 457.2 319.5L457.2 319.5L457.2 319.8Q457.2 321.4 456.6 322.7Q455.9 323.9 454.7 324.6Q453.5 325.3 451.8 325.3ZM451.8 324.1L451.8 324.1Q453.7 324.1 454.8 322.9Q455.9 321.7 455.9 319.7L455.9 319.7L455.9 319.6Q455.9 317.6 454.8 316.4Q453.7 315.2 451.8 315.2L451.8 315.2Q450.0 315.2 448.9 316.4Q447.7 317.6 447.7 319.6L447.7 319.6L447.7 319.7Q447.7 321.7 448.9 322.9Q450.0 324.1 451.8 324.1ZM465.5 325.3L465.5 325.3Q463.8 325.3 462.6 324.6Q461.4 323.9 460.7 322.7Q460.1 321.4 460.1 319.8L460.1 319.8L460.1 319.5Q460.1 317.9 460.7 316.6Q461.4 315.4 462.6 314.7Q463.8 314 465.5 314L465.5 314Q467.1 314 468.3 314.7Q469.5 315.4 470.2 316.6Q470.9 317.9 470.9 319.5L470.9 319.5L470.9 319.8Q470.9 321.4 470.2 322.7Q469.5 323.9 468.3 324.6Q467.1 325.3 465.5 325.3ZM465.5 324.1L465.5 324.1Q467.4 324.1 468.5 322.9Q469.6 321.7 469.6 319.7L469.6 319.7L469.6 319.6Q469.6 317.6 468.5 316.4Q467.4 315.2 465.5 315.2L465.5 315.2Q463.6 315.2 462.5 316.4Q461.4 317.6 461.4 319.6L461.4 319.6L461.4 319.7Q461.4 321.7 462.5 322.9Q463.6 324.1 465.5 324.1ZM475.6 329.4L474.2 329.4L474.2 314.3L475.5 314.3L475.5 316.3L475.8 316.3Q476.2 315.4 477.2 314.7Q478.2 314 480.0 314L480.0 314Q481.4 314 482.5 314.7Q483.7 315.3 484.4 316.6Q485.1 317.8 485.1 319.5L485.1 319.5L485.1 319.8Q485.1 321.5 484.4 322.7Q483.7 324.0 482.6 324.6Q481.4 325.3 480.0 325.3L480.0 325.3Q478.8 325.3 478.0 325.0Q477.1 324.7 476.6 324.2Q476.1 323.7 475.8 323.1L475.8 323.1L475.6 323.1L475.6 329.4ZM479.6 324.1L479.6 324.1Q481.5 324.1 482.6 323.0Q483.7 321.8 483.7 319.7L483.7 319.7L483.7 319.6Q483.7 317.5 482.6 316.4Q481.5 315.2 479.6 315.2L479.6 315.2Q477.8 315.2 476.7 316.4Q475.6 317.5 475.6 319.6L475.6 319.6L475.6 319.7Q475.6 321.8 476.7 323.0Q477.8 324.1 479.6 324.1Z" fill="#1F2328" stroke="#1F2328" stroke-width="0.66" stroke-linejoin="round"></path><path d="M385.2 345L384.4 345L384.4 335.6L385.2 335.6L385.2 345ZM388.4 345L387.6 345L387.6 338.4L388.4 338.4L388.4 345ZM388.0 337.3L388.0 337.3Q387.7 337.3 387.5 337.1Q387.3 336.9 387.3 336.6L387.3 336.6Q387.3 336.3 387.5 336.1Q387.7 335.9 388.0 335.9L388.0 335.9Q388.3 335.9 388.5 336.1Q388.7 336.3 388.7 336.6L388.7 336.6Q388.7 336.9 388.5 337.1Q388.3 337.3 388.0 337.3ZM393.9 345L392.6 345L390.1 338.4L391.0 338.4L393.1 344.4L393.3 344.4L395.5 338.4L396.3 338.4L393.9 345ZM400.7 345.2L400.7 345.2Q399.7 345.2 399.0 344.8Q398.2 344.3 397.8 343.6Q397.4 342.8 397.4 341.8L397.4 341.8L397.4 341.6Q397.4 340.6 397.8 339.9Q398.2 339.1 399.0 338.7Q399.7 338.3 400.6 338.3L400.6 338.3Q401.6 338.3 402.3 338.6Q403.0 339.0 403.4 339.7Q403.8 340.5 403.8 341.5L403.8 341.5L403.8 341.9L398.2 341.9Q398.2 343.1 398.9 343.8Q399.7 344.5 400.7 344.5L400.7 344.5Q401.6 344.5 402.2 344.0Q402.7 343.6 402.9 343.0L402.9 343.0L403.7 343.3Q403.5 343.8 403.1 344.2Q402.7 344.6 402.2 344.9Q401.6 345.2 400.7 345.2ZM398.2 341.2L398.2 341.2L403.0 341.2Q402.9 340.1 402.3 339.6Q401.6 339.0 400.6 339.0L400.6 339.0Q399.7 339.0 399.0 339.6Q398.4 340.1 398.2 341.2ZM413.3 345L411.6 345Q411.1 345 410.9 344.7Q410.6 344.5 410.6 344.0L410.6 344.0L410.6 339.2L408.5 339.2L408.5 338.4L410.6 338.4L410.6 336.0L411.4 336.0L411.4 338.4L413.7 338.4L413.7 339.2L411.4 339.2L411.4 343.9Q411.4 344.3 411.8 344.3L411.8 344.3L413.3 344.3L413.3 345ZM418.3 345.2L418.3 345.2Q417.3 345.2 416.5 344.8Q415.8 344.3 415.4 343.6Q414.9 342.8 414.9 341.8L414.9 341.8L414.9 341.6Q414.9 340.6 415.4 339.9Q415.8 339.1 416.5 338.7Q417.2 338.3 418.2 338.3L418.2 338.3Q419.1 338.3 419.8 338.6Q420.5 339.0 420.9 339.7Q421.3 340.5 421.3 341.5L421.3 341.5L421.3 341.9L415.7 341.9Q415.8 343.1 416.5 343.8Q417.2 344.5 418.3 344.5L418.3 344.5Q419.2 344.5 419.7 344.0Q420.2 343.6 420.5 343.0L420.5 343.0L421.2 343.3Q421.0 343.8 420.7 344.2Q420.3 344.6 419.7 344.9Q419.2 345.2 418.3 345.2ZM415.8 341.2L415.8 341.2L420.5 341.2Q420.5 340.1 419.8 339.6Q419.2 339.0 418.2 339.0L418.2 339.0Q417.2 339.0 416.6 339.6Q415.9 340.1 415.8 341.2ZM424.1 345L423.3 345L423.3 338.4L424.1 338.4L424.1 339.3L424.3 339.3Q424.5 338.8 424.8 338.6Q425.2 338.4 425.9 338.4L425.9 338.4L426.6 338.4L426.6 339.2L425.8 339.2Q425.0 339.2 424.6 339.6Q424.1 340.0 424.1 340.9L424.1 340.9L424.1 345ZM429.1 345L428.3 345L428.3 338.4L429.1 338.4L429.1 339.3L429.3 339.3Q429.5 338.9 429.9 338.6Q430.4 338.3 431.2 338.3L431.2 338.3Q432.0 338.3 432.5 338.7Q433.0 339.0 433.2 339.5L433.2 339.5L433.3 339.5Q433.6 339.0 434.0 338.7Q434.5 338.3 435.4 338.3L435.4 338.3Q436.1 338.3 436.6 338.6Q437.1 338.9 437.4 339.4Q437.7 339.8 437.7 340.5L437.7 340.5L437.7 345L436.8 345L436.8 340.6Q436.8 339.9 436.4 339.5Q436.0 339.0 435.2 339.0L435.2 339.0Q434.4 339.0 433.9 339.5Q433.4 340.0 433.4 341.0L433.4 341.0L433.4 345L432.6 345L432.6 340.6Q432.6 339.9 432.2 339.5Q431.7 339.0 431.0 339.0L431.0 339.0Q430.2 339.0 429.6 339.5Q429.1 340.0 429.1 341.0L429.1 341.0L429.1 345ZM440.8 345L439.9 345L439.9 338.4L440.8 338.4L440.8 345ZM440.4 337.3L440.4 337.3Q440.1 337.3 439.9 337.1Q439.7 336.9 439.7 336.6L439.7 336.6Q439.7 336.3 439.9 336.1Q440.1 335.9 440.4 335.9L440.4 335.9Q440.7 335.9 440.9 336.1Q441.1 336.3 441.1 336.6L441.1 336.6Q441.1 336.9 440.9 337.1Q440.7 337.3 440.4 337.3ZM443.9 345L443.1 345L443.1 338.4L443.9 338.4L443.9 339.7L444.1 339.7Q444.3 339.1 444.9 338.7Q445.4 338.3 446.5 338.3L446.5 338.3Q447.2 338.3 447.8 338.6Q448.4 338.9 448.7 339.5Q449.1 340.1 449.1 341.0L449.1 341.0L449.1 345L448.3 345L448.3 341.1Q448.3 340.0 447.8 339.5Q447.2 339.0 446.3 339.0L446.3 339.0Q445.3 339.0 444.6 339.7Q443.9 340.4 443.9 341.7L443.9 341.7L443.9 345ZM453.4 345.2L453.4 345.2Q452.7 345.2 452.2 345.0Q451.6 344.7 451.3 344.3Q451.0 343.8 451.0 343.2L451.0 343.2Q451.0 342.5 451.3 342.1Q451.6 341.6 452.2 341.4Q452.7 341.2 453.4 341.2L453.4 341.2L455.8 341.2L455.8 340.7Q455.8 339.9 455.3 339.4Q454.9 339.0 454.0 339.0L454.0 339.0Q453.1 339.0 452.6 339.4Q452.1 339.8 451.9 340.5L451.9 340.5L451.2 340.3Q451.3 339.7 451.7 339.3Q452.0 338.8 452.6 338.5Q453.2 338.3 454.0 338.3L454.0 338.3Q455.2 338.3 455.9 338.9Q456.6 339.5 456.6 340.7L456.6 340.7L456.6 343.9Q456.6 344.3 457.0 344.3L457.0 344.3L457.6 344.3L457.6 345L456.7 345Q456.3 345 456.1 344.8Q455.8 344.5 455.8 344.1L455.8 344.1L455.8 344.0L455.7 344.0Q455.5 344.3 455.3 344.6Q455.0 344.8 454.5 345.0Q454.1 345.2 453.4 345.2ZM453.5 344.5L453.5 344.5Q454.5 344.5 455.1 343.8Q455.8 343.2 455.8 342.1L455.8 342.1L455.8 341.9L453.4 341.9Q452.7 341.9 452.2 342.2Q451.8 342.5 451.8 343.1L451.8 343.1Q451.8 343.8 452.2 344.1Q452.7 344.5 453.5 344.5ZM460.0 345L459.1 345L459.1 335.6L460.0 335.6L460.0 345ZM469.1 345.2L469.1 345.2Q468.1 345.2 467.3 344.8Q466.6 344.5 466.1 343.7Q465.7 343.0 465.7 341.9L465.7 341.9L465.7 335.6L466.6 335.6L466.6 341.9Q466.6 343.2 467.2 343.8Q467.9 344.4 469.1 344.4L469.1 344.4Q470.3 344.4 471.0 343.8Q471.6 343.2 471.6 341.9L471.6 341.9L471.6 335.6L472.5 335.6L472.5 341.9Q472.5 343.0 472.1 343.7Q471.7 344.5 470.9 344.8Q470.1 345.2 469.1 345.2ZM475.6 345L474.8 345L474.8 335.6L475.6 335.6L475.6 345Z" fill="#6E7781"></path><line x1="234" y1="111" x2="305" y2="111" stroke="#6E7781" stroke-width="1.75" stroke-linecap="round"></line><path d="M314 111 L305 106.2 L305 115.8 Z" fill="#6E7781"></path><line x1="243" y1="133" x2="312" y2="133" stroke="#6E7781" stroke-width="1.75" stroke-linecap="round"></line><path d="M232 133 L241 128.2 L241 137.8 Z" fill="#6E7781"></path><line x1="548" y1="111" x2="619" y2="111" stroke="#6E7781" stroke-width="1.75" stroke-linecap="round"></line><path d="M628 111 L619 106.2 L619 115.8 Z" fill="#6E7781"></path><line x1="557" y1="133" x2="626" y2="133" stroke="#6E7781" stroke-width="1.75" stroke-linecap="round"></line><path d="M546 133 L555 128.2 L555 137.8 Z" fill="#6E7781"></path><path d="M237.8 55.2L237.8 55.2Q236.6 55.2 235.8 54.6Q235.0 54.1 234.8 52.7L234.8 52.7L235.6 52.6Q235.7 53.3 236.0 53.7Q236.3 54.1 236.8 54.3Q237.3 54.5 237.8 54.5L237.8 54.5Q238.6 54.5 239.1 54.2Q239.6 53.8 239.6 53.2L239.6 53.2Q239.6 52.7 239.2 52.4Q238.7 52.2 237.9 52.1L237.9 52.1L237.3 51.9Q236.7 51.8 236.2 51.6Q235.7 51.4 235.4 51.0Q235.1 50.6 235.1 50.1L235.1 50.1Q235.1 49.2 235.8 48.7Q236.4 48.3 237.5 48.3L237.5 48.3Q238.7 48.3 239.3 48.8Q240.0 49.3 240.2 50.2L240.2 50.2L239.4 50.4Q239.3 49.6 238.8 49.3Q238.3 49.0 237.5 49.0L237.5 49.0Q236.8 49.0 236.4 49.2Q235.9 49.5 235.9 50.1L235.9 50.1Q235.9 50.6 236.3 50.9Q236.7 51.1 237.4 51.2L237.4 51.2L238.0 51.3Q238.7 51.4 239.3 51.7Q239.8 51.9 240.1 52.2Q240.4 52.6 240.4 53.2L240.4 53.2Q240.4 54.2 239.7 54.7Q239.0 55.2 237.8 55.2ZM246.3 55L244.6 55Q244.0 55 243.8 54.7Q243.5 54.5 243.5 54.0L243.5 54.0L243.5 49.2L241.4 49.2L241.4 48.4L243.5 48.4L243.5 46.0L244.3 46.0L244.3 48.4L246.6 48.4L246.6 49.2L244.3 49.2L244.3 53.9Q244.3 54.3 244.7 54.3L244.7 54.3L246.3 54.3L246.3 55ZM251.0 55.2L251.0 55.2Q250.1 55.2 249.4 54.8Q248.7 54.4 248.3 53.6Q247.9 52.8 247.9 51.8L247.9 51.8L247.9 51.6Q247.9 50.6 248.3 49.8Q248.7 49.1 249.4 48.7Q250.1 48.3 251.0 48.3L251.0 48.3Q251.7 48.3 252.2 48.4Q252.7 48.6 253.1 48.9Q253.4 49.2 253.6 49.6L253.6 49.6L253.7 49.6L253.7 45.5L254.5 45.5L254.5 55L253.7 55L253.7 53.8L253.6 53.8Q253.3 54.3 252.7 54.8Q252.1 55.2 251.0 55.2ZM251.2 54.5L251.2 54.5Q252.3 54.5 253.0 53.7Q253.7 53.0 253.7 51.8L253.7 51.8L253.7 51.7Q253.7 50.4 253.0 49.7Q252.3 49.0 251.2 49.0L251.2 49.0Q250.1 49.0 249.4 49.7Q248.7 50.4 248.7 51.7L248.7 51.7L248.7 51.8Q248.7 53.0 249.4 53.7Q250.1 54.5 251.2 54.5ZM257.7 55L256.9 55L256.9 48.4L257.7 48.4L257.7 55ZM257.3 47.3L257.3 47.3Q257.0 47.3 256.8 47.1Q256.6 46.9 256.6 46.6L256.6 46.6Q256.6 46.3 256.8 46.1Q257.0 45.9 257.3 45.9L257.3 45.9Q257.6 45.9 257.8 46.1Q258.0 46.3 258.0 46.6L258.0 46.6Q258.0 46.9 257.8 47.1Q257.6 47.3 257.3 47.3ZM263.1 55.2L263.1 55.2Q262.1 55.2 261.3 54.8Q260.6 54.3 260.2 53.6Q259.8 52.8 259.8 51.8L259.8 51.8L259.8 51.6Q259.8 50.6 260.2 49.9Q260.6 49.1 261.3 48.7Q262.1 48.3 263.1 48.3L263.1 48.3Q264.1 48.3 264.8 48.7Q265.6 49.1 266.0 49.9Q266.4 50.6 266.4 51.6L266.4 51.6L266.4 51.8Q266.4 52.8 266.0 53.6Q265.6 54.3 264.8 54.8Q264.1 55.2 263.1 55.2ZM263.1 54.5L263.1 54.5Q264.2 54.5 264.9 53.7Q265.6 53.0 265.6 51.8L265.6 51.8L265.6 51.7Q265.6 50.5 264.9 49.7Q264.2 49.0 263.1 49.0L263.1 49.0Q261.9 49.0 261.3 49.7Q260.6 50.5 260.6 51.7L260.6 51.7L260.6 51.8Q260.6 53.0 261.3 53.7Q261.9 54.5 263.1 54.5ZM271.7 57.7L270.8 57.7L274.8 45.5L275.6 45.5L271.7 57.7ZM281.2 55L280.3 55L280.3 45.5L281.2 45.5L281.2 49.9L286.0 49.9L286.0 45.5L286.8 45.5L286.8 55L286.0 55L286.0 50.7L281.2 50.7L281.2 55ZM292.4 55L291.5 55L291.5 46.3L288.4 46.3L288.4 45.5L295.6 45.5L295.6 46.3L292.4 46.3L292.4 55ZM300.3 55L299.5 55L299.5 46.3L296.3 46.3L296.3 45.5L303.5 45.5L303.5 46.3L300.3 46.3L300.3 55ZM305.9 55L305.0 55L305.0 45.5L308.5 45.5Q309.4 45.5 310.0 45.9Q310.7 46.2 311.1 46.8Q311.5 47.4 311.5 48.2L311.5 48.2L311.5 48.4Q311.5 49.2 311.1 49.8Q310.7 50.4 310.0 50.7Q309.3 51.1 308.5 51.1L308.5 51.1L305.9 51.1L305.9 55ZM305.9 46.3L305.9 50.3L308.4 50.3Q309.4 50.3 310.0 49.8Q310.6 49.3 310.6 48.4L310.6 48.4L310.6 48.2Q310.6 47.3 310.0 46.8Q309.5 46.3 308.4 46.3L308.4 46.3L305.9 46.3Z" fill="#6E7781"></path><path d="M551.8 55.2L551.8 55.2Q550.6 55.2 549.8 54.6Q549.0 54.1 548.8 52.7L548.8 52.7L549.6 52.6Q549.7 53.3 550.0 53.7Q550.3 54.1 550.8 54.3Q551.3 54.5 551.8 54.5L551.8 54.5Q552.6 54.5 553.1 54.2Q553.6 53.8 553.6 53.2L553.6 53.2Q553.6 52.7 553.2 52.4Q552.7 52.2 551.9 52.1L551.9 52.1L551.3 51.9Q550.7 51.8 550.2 51.6Q549.7 51.4 549.4 51.0Q549.1 50.6 549.1 50.1L549.1 50.1Q549.1 49.2 549.8 48.7Q550.4 48.3 551.5 48.3L551.5 48.3Q552.7 48.3 553.3 48.8Q554.0 49.3 554.2 50.2L554.2 50.2L553.4 50.4Q553.3 49.6 552.8 49.3Q552.3 49.0 551.5 49.0L551.5 49.0Q550.8 49.0 550.4 49.2Q549.9 49.5 549.9 50.1L549.9 50.1Q549.9 50.6 550.3 50.9Q550.7 51.1 551.4 51.2L551.4 51.2L552.0 51.3Q552.7 51.4 553.3 51.7Q553.8 51.9 554.1 52.2Q554.4 52.6 554.4 53.2L554.4 53.2Q554.4 54.2 553.7 54.7Q553.0 55.2 551.8 55.2ZM560.3 55L558.6 55Q558.0 55 557.8 54.7Q557.5 54.5 557.5 54.0L557.5 54.0L557.5 49.2L555.4 49.2L555.4 48.4L557.5 48.4L557.5 46.0L558.3 46.0L558.3 48.4L560.6 48.4L560.6 49.2L558.3 49.2L558.3 53.9Q558.3 54.3 558.7 54.3L558.7 54.3L560.3 54.3L560.3 55ZM565.0 55.2L565.0 55.2Q564.1 55.2 563.4 54.8Q562.7 54.4 562.3 53.6Q561.9 52.8 561.9 51.8L561.9 51.8L561.9 51.6Q561.9 50.6 562.3 49.8Q562.7 49.1 563.4 48.7Q564.1 48.3 565.0 48.3L565.0 48.3Q565.7 48.3 566.2 48.4Q566.7 48.6 567.1 48.9Q567.4 49.2 567.6 49.6L567.6 49.6L567.7 49.6L567.7 45.5L568.5 45.5L568.5 55L567.7 55L567.7 53.8L567.6 53.8Q567.3 54.3 566.7 54.8Q566.1 55.2 565.0 55.2ZM565.2 54.5L565.2 54.5Q566.3 54.5 567.0 53.7Q567.7 53.0 567.7 51.8L567.7 51.8L567.7 51.7Q567.7 50.4 567.0 49.7Q566.3 49.0 565.2 49.0L565.2 49.0Q564.1 49.0 563.4 49.7Q562.7 50.4 562.7 51.7L562.7 51.7L562.7 51.8Q562.7 53.0 563.4 53.7Q564.1 54.5 565.2 54.5ZM571.7 55L570.9 55L570.9 48.4L571.7 48.4L571.7 55ZM571.3 47.3L571.3 47.3Q571.0 47.3 570.8 47.1Q570.6 46.9 570.6 46.6L570.6 46.6Q570.6 46.3 570.8 46.1Q571.0 45.9 571.3 45.9L571.3 45.9Q571.6 45.9 571.8 46.1Q572.0 46.3 572.0 46.6L572.0 46.6Q572.0 46.9 571.8 47.1Q571.6 47.3 571.3 47.3ZM577.1 55.2L577.1 55.2Q576.1 55.2 575.3 54.8Q574.6 54.3 574.2 53.6Q573.8 52.8 573.8 51.8L573.8 51.8L573.8 51.6Q573.8 50.6 574.2 49.9Q574.6 49.1 575.3 48.7Q576.1 48.3 577.1 48.3L577.1 48.3Q578.1 48.3 578.8 48.7Q579.6 49.1 580.0 49.9Q580.4 50.6 580.4 51.6L580.4 51.6L580.4 51.8Q580.4 52.8 580.0 53.6Q579.6 54.3 578.8 54.8Q578.1 55.2 577.1 55.2ZM577.1 54.5L577.1 54.5Q578.2 54.5 578.9 53.7Q579.6 53.0 579.6 51.8L579.6 51.8L579.6 51.7Q579.6 50.5 578.9 49.7Q578.2 49.0 577.1 49.0L577.1 49.0Q575.9 49.0 575.3 49.7Q574.6 50.5 574.6 51.7L574.6 51.7L574.6 51.8Q574.6 53.0 575.3 53.7Q575.9 54.5 577.1 54.5ZM585.7 57.7L584.8 57.7L588.8 45.5L589.6 45.5L585.7 57.7ZM595.2 55L594.3 55L594.3 45.5L595.2 45.5L595.2 49.9L600.0 49.9L600.0 45.5L600.8 45.5L600.8 55L600.0 55L600.0 50.7L595.2 50.7L595.2 55ZM606.4 55L605.5 55L605.5 46.3L602.4 46.3L602.4 45.5L609.6 45.5L609.6 46.3L606.4 46.3L606.4 55ZM614.3 55L613.5 55L613.5 46.3L610.3 46.3L610.3 45.5L617.5 45.5L617.5 46.3L614.3 46.3L614.3 55ZM619.9 55L619.0 55L619.0 45.5L622.5 45.5Q623.4 45.5 624.0 45.9Q624.7 46.2 625.1 46.8Q625.5 47.4 625.5 48.2L625.5 48.2L625.5 48.4Q625.5 49.2 625.1 49.8Q624.7 50.4 624.0 50.7Q623.3 51.1 622.5 51.1L622.5 51.1L619.9 51.1L619.9 55ZM619.9 46.3L619.9 50.3L622.4 50.3Q623.4 50.3 624.0 49.8Q624.6 49.3 624.6 48.4L624.6 48.4L624.6 48.2Q624.6 47.3 624.0 46.8Q623.5 46.3 622.4 46.3L622.4 46.3L619.9 46.3Z" fill="#6E7781"></path><line x1="430" y1="164" x2="430" y2="277" stroke="#1FB6FF" stroke-width="1.75" stroke-linecap="round"></line><path d="M430 286 L425.2 277 L434.8 277 Z" fill="#1FB6FF"></path><path d="M456.3 230.2L456.3 230.2Q455.3 230.2 454.6 229.8Q453.8 229.3 453.3 228.5Q452.9 227.7 452.9 226.7L452.9 226.7L452.9 226.5Q452.9 225.4 453.3 224.6Q453.8 223.9 454.6 223.4Q455.3 223 456.3 223L456.3 223Q457.3 223 458.0 223.4Q458.7 223.7 459.1 224.3Q459.4 224.9 459.5 225.6L459.5 225.6L458.7 225.8Q458.6 225.2 458.4 224.8Q458.1 224.3 457.6 224.0Q457.1 223.8 456.3 223.8L456.3 223.8Q455.6 223.8 455.0 224.1Q454.4 224.4 454.1 225.1Q453.7 225.7 453.7 226.5L453.7 226.5L453.7 226.7Q453.7 227.5 454.1 228.1Q454.4 228.8 455.0 229.1Q455.6 229.4 456.3 229.4L456.3 229.4Q457.5 229.4 458.0 228.9Q458.6 228.3 458.8 227.4L458.8 227.4L459.6 227.6Q459.5 228.3 459.1 228.9Q458.7 229.5 458.0 229.8Q457.3 230.2 456.3 230.2ZM464.8 230.2L464.8 230.2Q463.7 230.2 463.0 229.8Q462.2 229.3 461.8 228.5Q461.3 227.7 461.3 226.7L461.3 226.7L461.3 226.5Q461.3 225.5 461.8 224.7Q462.2 223.9 463.0 223.4Q463.7 223 464.8 223L464.8 223Q465.8 223 466.6 223.4Q467.4 223.9 467.8 224.7Q468.2 225.5 468.2 226.5L468.2 226.5L468.2 226.7Q468.2 227.7 467.8 228.5Q467.4 229.3 466.6 229.8Q465.8 230.2 464.8 230.2ZM464.8 229.4L464.8 229.4Q466.0 229.4 466.7 228.7Q467.4 227.9 467.4 226.7L467.4 226.7L467.4 226.5Q467.4 225.3 466.7 224.5Q466.0 223.8 464.8 223.8L464.8 223.8Q463.6 223.8 462.9 224.5Q462.2 225.3 462.2 226.5L462.2 226.5L462.2 226.7Q462.2 227.9 462.9 228.7Q463.6 229.4 464.8 229.4ZM471.2 232.8L470.4 232.8L470.4 223.2L471.2 223.2L471.2 224.4L471.3 224.4Q471.6 223.9 472.3 223.4Q472.9 223 474.0 223L474.0 223Q474.9 223 475.6 223.4Q476.4 223.9 476.8 224.6Q477.3 225.4 477.3 226.5L477.3 226.5L477.3 226.7Q477.3 227.8 476.8 228.6Q476.4 229.3 475.7 229.8Q474.9 230.2 474.0 230.2L474.0 230.2Q473.3 230.2 472.7 230.0Q472.2 229.8 471.9 229.5Q471.5 229.1 471.4 228.8L471.4 228.8L471.2 228.8L471.2 232.8ZM473.8 229.4L473.8 229.4Q475.0 229.4 475.7 228.7Q476.4 228.0 476.4 226.7L476.4 226.7L476.4 226.5Q476.4 225.2 475.7 224.5Q475.0 223.8 473.8 223.8L473.8 223.8Q472.7 223.8 471.9 224.5Q471.2 225.2 471.2 226.5L471.2 226.5L471.2 226.7Q471.2 228.0 471.9 228.7Q472.7 229.4 473.8 229.4ZM484.4 232.8L480.3 232.8L480.3 232.0L484.2 232.0Q484.6 232.0 484.6 231.6L484.6 231.6L484.6 228.8L484.5 228.8Q484.3 229.2 484.0 229.5Q483.7 229.8 483.2 230.0Q482.7 230.1 482.0 230.1L482.0 230.1Q481.3 230.1 480.7 229.8Q480.0 229.5 479.7 228.9Q479.3 228.3 479.3 227.4L479.3 227.4L479.3 223.2L480.1 223.2L480.1 227.3Q480.1 228.4 480.7 228.9Q481.3 229.4 482.2 229.4L482.2 229.4Q483.2 229.4 483.9 228.7Q484.6 228.0 484.6 226.6L484.6 226.6L484.6 223.2L485.5 223.2L485.5 231.7Q485.5 232.2 485.2 232.5Q484.9 232.8 484.4 232.8L484.4 232.8ZM494.7 230.2L494.7 230.2Q493.6 230.2 492.9 229.8Q492.1 229.3 491.7 228.5Q491.2 227.7 491.2 226.7L491.2 226.7L491.2 226.5Q491.2 225.5 491.7 224.7Q492.1 223.9 492.9 223.4Q493.6 223 494.7 223L494.7 223Q495.7 223 496.5 223.4Q497.3 223.9 497.7 224.7Q498.1 225.5 498.1 226.5L498.1 226.5L498.1 226.7Q498.1 227.7 497.7 228.5Q497.3 229.3 496.5 229.8Q495.7 230.2 494.7 230.2ZM494.7 229.4L494.7 229.4Q495.9 229.4 496.6 228.7Q497.3 227.9 497.3 226.7L497.3 226.7L497.3 226.5Q497.3 225.3 496.6 224.5Q495.9 223.8 494.7 223.8L494.7 223.8Q493.5 223.8 492.8 224.5Q492.1 225.3 492.1 226.5L492.1 226.5L492.1 226.7Q492.1 227.9 492.8 228.7Q493.5 229.4 494.7 229.4ZM502.2 230L501.4 230L501.4 224.0L499.1 224.0L499.1 223.2L501.4 223.2L501.4 221.3Q501.4 220.8 501.7 220.5Q501.9 220.2 502.5 220.2L502.5 220.2L504.2 220.2L504.2 221.0L502.6 221.0Q502.2 221.0 502.2 221.4L502.2 221.4L502.2 223.2L504.5 223.2L504.5 224.0L502.2 224.0L502.2 230ZM512.9 230.2L512.9 230.2Q511.9 230.2 511.1 229.8Q510.3 229.3 509.9 228.5Q509.4 227.7 509.4 226.7L509.4 226.7L509.4 226.5Q509.4 225.5 509.9 224.7Q510.3 223.9 511.1 223.4Q511.8 223 512.8 223L512.8 223Q513.8 223 514.5 223.4Q515.2 223.8 515.7 224.5Q516.1 225.3 516.1 226.3L516.1 226.3L516.1 226.8L510.3 226.8Q510.3 228.1 511.1 228.7Q511.8 229.4 512.9 229.4L512.9 229.4Q513.9 229.4 514.4 229.0Q514.9 228.6 515.2 227.9L515.2 227.9L516.0 228.3Q515.7 228.7 515.4 229.2Q515 229.6 514.4 229.9Q513.8 230.2 512.9 230.2ZM510.3 226.1L510.3 226.1L515.2 226.1Q515.2 224.9 514.5 224.4Q513.9 223.8 512.8 223.8L512.8 223.8Q511.8 223.8 511.1 224.4Q510.5 224.9 510.3 226.1ZM521.0 230L519.7 230L517.1 223.2L518.0 223.2L520.3 229.4L520.4 229.4L522.7 223.2L523.6 223.2L521.0 230ZM528.1 230.2L528.1 230.2Q527.1 230.2 526.3 229.8Q525.5 229.3 525.1 228.5Q524.7 227.7 524.7 226.7L524.7 226.7L524.7 226.5Q524.7 225.5 525.1 224.7Q525.5 223.9 526.3 223.4Q527.1 223 528.0 223L528.0 223Q529 223 529.7 223.4Q530.5 223.8 530.9 224.5Q531.3 225.3 531.3 226.3L531.3 226.3L531.3 226.8L525.5 226.8Q525.6 228.1 526.3 228.7Q527.0 229.4 528.1 229.4L528.1 229.4Q529.1 229.4 529.6 229.0Q530.1 228.6 530.4 227.9L530.4 227.9L531.2 228.3Q531.0 228.7 530.6 229.2Q530.2 229.6 529.6 229.9Q529.1 230.2 528.1 230.2ZM525.5 226.1L525.5 226.1L530.5 226.1Q530.4 224.9 529.7 224.4Q529.1 223.8 528.0 223.8L528.0 223.8Q527.0 223.8 526.4 224.4Q525.7 224.9 525.5 226.1ZM534.2 230L533.4 230L533.4 223.2L534.2 223.2L534.2 224.1L534.4 224.1Q534.6 223.6 534.9 223.4Q535.3 223.2 536.0 223.2L536.0 223.2L536.8 223.2L536.8 224.0L535.9 224.0Q535.1 224.0 534.7 224.4Q534.2 224.8 534.2 225.7L534.2 225.7L534.2 230ZM543.5 232.8L539.4 232.8L539.4 232.0L543.4 232.0Q543.8 232.0 543.8 231.6L543.8 231.6L543.8 228.8L543.6 228.8Q543.5 229.2 543.2 229.5Q542.9 229.8 542.4 230.0Q541.9 230.1 541.2 230.1L541.2 230.1Q540.4 230.1 539.8 229.8Q539.2 229.5 538.8 228.9Q538.5 228.3 538.5 227.4L538.5 227.4L538.5 223.2L539.3 223.2L539.3 227.3Q539.3 228.4 539.9 228.9Q540.4 229.4 541.3 229.4L541.3 229.4Q542.4 229.4 543.1 228.7Q543.8 228.0 543.8 226.6L543.8 226.6L543.8 223.2L544.6 223.2L544.6 231.7Q544.6 232.2 544.4 232.5Q544.1 232.8 543.5 232.8L543.5 232.8ZM553.1 230.2L553.1 230.2Q551.7 230.2 550.9 229.4Q550.1 228.6 550.1 227.1L550.1 227.1L550.1 226.4L551.0 226.4L551.0 227.1Q551.0 228.1 551.5 228.7Q552.1 229.4 553.1 229.4L553.1 229.4Q554.3 229.4 554.7 228.7Q555.1 228.1 555.1 227.1L555.1 227.1L555.1 221.0L553.4 221.0L553.4 220.2L557.1 220.2L557.1 221.0L556.0 221.0L556.0 227.1Q556.0 228.6 555.3 229.4Q554.6 230.2 553.1 230.2ZM562.1 230.2L562.1 230.2Q561.1 230.2 560.2 229.8Q559.4 229.5 558.9 228.7Q558.5 227.9 558.5 226.8L558.5 226.8L558.5 226.5L559.4 226.5L559.4 226.8Q559.4 228.1 560.1 228.8Q560.9 229.4 562.1 229.4L562.1 229.4Q563.3 229.4 564.0 228.8Q564.7 228.3 564.7 227.4L564.7 227.4Q564.7 226.8 564.4 226.5Q564.1 226.1 563.6 225.9Q563.1 225.7 562.4 225.5L562.4 225.5L561.5 225.3Q560.7 225.1 560.1 224.7Q559.4 224.4 559.1 223.9Q558.7 223.4 558.7 222.6L558.7 222.6Q558.7 221.8 559.1 221.2Q559.5 220.6 560.3 220.3Q561.0 220.0 562.0 220.0L562.0 220.0Q562.9 220.0 563.7 220.3Q564.5 220.7 564.9 221.3Q565.4 222.0 565.4 223.0L565.4 223.0L565.4 223.6L564.5 223.6L564.5 223.0Q564.5 222.2 564.2 221.7Q563.8 221.2 563.2 221.0Q562.7 220.8 562.0 220.8L562.0 220.8Q560.9 220.8 560.3 221.3Q559.6 221.7 559.6 222.6L559.6 222.6Q559.6 223.2 559.9 223.5Q560.1 223.9 560.6 224.1Q561.1 224.3 561.8 224.5L561.8 224.5L562.7 224.7Q563.5 224.9 564.1 225.2Q564.8 225.5 565.2 226.0Q565.6 226.5 565.6 227.4L565.6 227.4Q565.6 228.3 565.1 228.9Q564.7 229.5 563.9 229.9Q563.2 230.2 562.1 230.2ZM571 230.2L571 230.2Q569.3 230.2 568.3 229.2Q567.2 228.2 567.2 226.2L567.2 226.2L567.2 224.0Q567.2 222.0 568.3 221.0Q569.3 220.0 571 220.0L571 220.0Q572.7 220.0 573.7 221.0Q574.8 222.0 574.8 224.0L574.8 224.0L574.8 226.2Q574.8 228.2 573.7 229.2Q572.7 230.2 571 230.2ZM571 229.4L571 229.4Q572.4 229.4 573.1 228.6Q573.9 227.7 573.9 226.2L573.9 226.2L573.9 224.0Q573.9 222.5 573.1 221.6Q572.4 220.8 571 220.8L571 220.8Q569.6 220.8 568.9 221.6Q568.1 222.5 568.1 224.0L568.1 224.0L568.1 226.2Q568.1 227.7 568.9 228.6Q569.6 229.4 571 229.4ZM577.8 230L576.9 230L576.9 220.2L578.6 220.2L582.6 229.5L582.8 229.5L582.8 220.2L583.7 220.2L583.7 230L581.9 230L577.9 220.7L577.8 220.7L577.8 230ZM590.2 226.8L586.1 226.8L586.1 226.0L590.2 226.0L590.2 226.8ZM593.5 230L592.6 230L592.6 220.2L596.5 220.2Q597.4 220.2 598.1 220.5Q598.7 220.8 599.1 221.4Q599.5 222.0 599.5 222.8L599.5 222.8L599.5 222.9Q599.5 223.9 599.1 224.5Q598.6 225.1 597.9 225.3L597.9 225.3L597.9 225.4Q598.4 225.4 598.8 225.7Q599.1 226.0 599.1 226.7L599.1 226.7L599.1 230L598.2 230L598.2 226.8Q598.2 226.3 598.0 226.1Q597.7 225.8 597.2 225.8L597.2 225.8L593.5 225.8L593.5 230ZM593.5 221.0L593.5 225.0L596.4 225.0Q597.5 225.0 598.1 224.5Q598.6 224.0 598.6 223.1L598.6 223.1L598.6 223.0Q598.6 222.0 598.1 221.5Q597.5 221.0 596.4 221.0L596.4 221.0L593.5 221.0ZM602.3 230L601.4 230L601.4 220.2L605.1 220.2Q605.9 220.2 606.6 220.5Q607.3 220.9 607.7 221.5Q608.1 222.1 608.1 223.0L608.1 223.0L608.1 223.1Q608.1 224.0 607.7 224.6Q607.3 225.3 606.6 225.6Q605.9 225.9 605.1 225.9L605.1 225.9L602.3 225.9L602.3 230ZM602.3 221.0L602.3 225.1L605.0 225.1Q606.0 225.1 606.6 224.6Q607.2 224.1 607.2 223.1L607.2 223.1L607.2 223.0Q607.2 222.0 606.7 221.5Q606.1 221.0 605.0 221.0L605.0 221.0L602.3 221.0ZM613.3 230.2L613.3 230.2Q611.6 230.2 610.6 229.2Q609.5 228.2 609.5 226.2L609.5 226.2L609.5 224.0Q609.5 222.0 610.6 221.0Q611.6 220.0 613.3 220.0L613.3 220.0Q615.0 220.0 615.9 221.0Q616.8 221.9 616.8 223.6L616.8 223.6L616.8 223.6L615.9 223.6L615.9 223.5Q615.9 222.3 615.3 221.6Q614.7 220.8 613.3 220.8L613.3 220.8Q612.0 220.8 611.2 221.6Q610.4 222.5 610.4 224.0L610.4 224.0L610.4 226.2Q610.4 227.7 611.2 228.6Q612.0 229.4 613.3 229.4L613.3 229.4Q614.7 229.4 615.3 228.6Q615.9 227.9 615.9 226.7L615.9 226.7L615.9 226.4L616.8 226.4L616.8 226.6Q616.8 228.3 615.9 229.2Q615.0 230.2 613.3 230.2ZM624.7 230L623.9 230L623.9 224.0L621.7 224.0L621.7 223.2L623.9 223.2L623.9 221.3Q623.9 220.8 624.2 220.5Q624.4 220.2 625.0 220.2L625.0 220.2L626.7 220.2L626.7 221.0L625.2 221.0Q624.7 221.0 624.7 221.4L624.7 221.4L624.7 223.2L627.0 223.2L627.0 224.0L624.7 224.0L624.7 230ZM629.5 230L628.7 230L628.7 223.2L629.5 223.2L629.5 224.1L629.7 224.1Q629.9 223.6 630.2 223.4Q630.6 223.2 631.3 223.2L631.3 223.2L632.1 223.2L632.1 224.0L631.2 224.0Q630.4 224.0 630.0 224.4Q629.5 224.8 629.5 225.7L629.5 225.7L629.5 230ZM635.7 230.2L635.7 230.2Q635.0 230.2 634.4 230.0Q633.8 229.7 633.5 229.2Q633.1 228.8 633.1 228.1L633.1 228.1Q633.1 227.4 633.5 226.9Q633.8 226.5 634.4 226.3Q634.9 226.1 635.6 226.1L635.6 226.1L638.1 226.1L638.1 225.5Q638.1 224.7 637.7 224.2Q637.2 223.8 636.3 223.8L636.3 223.8Q635.4 223.8 634.8 224.2Q634.3 224.6 634.1 225.4L634.1 225.4L633.3 225.1Q633.5 224.5 633.9 224.1Q634.2 223.6 634.8 223.3Q635.4 223 636.3 223L636.3 223Q637.6 223 638.3 223.7Q639.0 224.3 639.0 225.5L639.0 225.5L639.0 228.9Q639.0 229.3 639.4 229.3L639.4 229.3L640.0 229.3L640.0 230L639.1 230Q638.7 230 638.4 229.7Q638.2 229.5 638.2 229.0L638.2 229.0L638.2 228.9L638.0 228.9Q637.9 229.2 637.6 229.5Q637.3 229.8 636.8 230.0Q636.4 230.2 635.7 230.2ZM635.7 229.4L635.7 229.4Q636.8 229.4 637.5 228.8Q638.1 228.1 638.1 226.9L638.1 226.9L638.1 226.8L635.7 226.8Q634.9 226.8 634.4 227.1Q634.0 227.4 634.0 228.1L634.0 228.1Q634.0 228.7 634.5 229.1Q635.0 229.4 635.7 229.4ZM642.5 230L641.6 230L641.6 223.2L642.4 223.2L642.4 224.1L642.6 224.1Q642.8 223.7 643.3 223.4Q643.7 223.1 644.6 223.1L644.6 223.1Q645.4 223.1 645.9 223.4Q646.4 223.8 646.7 224.3L646.7 224.3L646.8 224.3Q647.1 223.8 647.6 223.4Q648.1 223.1 649.0 223.1L649.0 223.1Q649.7 223.1 650.2 223.3Q650.7 223.6 651.0 224.1Q651.3 224.7 651.3 225.3L651.3 225.3L651.3 230L650.5 230L650.5 225.4Q650.5 224.7 650.0 224.3Q649.6 223.8 648.8 223.8L648.8 223.8Q648.0 223.8 647.4 224.3Q646.9 224.9 646.9 225.9L646.9 225.9L646.9 230L646.0 230L646.0 225.4Q646.0 224.7 645.6 224.3Q645.2 223.8 644.4 223.8L644.4 223.8Q643.5 223.8 643.0 224.3Q642.5 224.9 642.5 225.9L642.5 225.9L642.5 230ZM656.8 230.2L656.8 230.2Q655.8 230.2 655.0 229.8Q654.2 229.3 653.8 228.5Q653.3 227.7 653.3 226.7L653.3 226.7L653.3 226.5Q653.3 225.5 653.8 224.7Q654.2 223.9 655.0 223.4Q655.7 223 656.7 223L656.7 223Q657.7 223 658.4 223.4Q659.1 223.8 659.6 224.5Q660.0 225.3 660.0 226.3L660.0 226.3L660.0 226.8L654.2 226.8Q654.2 228.1 655.0 228.7Q655.7 229.4 656.8 229.4L656.8 229.4Q657.8 229.4 658.3 229.0Q658.8 228.6 659.1 227.9L659.1 227.9L659.9 228.3Q659.6 228.7 659.3 229.2Q658.9 229.6 658.3 229.9Q657.7 230.2 656.8 230.2ZM654.2 226.1L654.2 226.1L659.1 226.1Q659.1 224.9 658.4 224.4Q657.8 223.8 656.7 223.8L656.7 223.8Q655.7 223.8 655.0 224.4Q654.4 224.9 654.2 226.1Z" fill="#1FB6FF"></path><line x1="562" y1="328" x2="576" y2="328" stroke="#6E7781" stroke-width="1.75" stroke-linecap="round"></line><path d="M560 328 L569 323.2 L569 332.8 Z" fill="#6E7781"></path><path d="M592.2 335.8L588.1 335.8L588.1 335.0L592.1 335.0Q592.5 335.0 592.5 334.6L592.5 334.6L592.5 331.8L592.3 331.8Q592.1 332.2 591.8 332.5Q591.5 332.8 591.1 333.0Q590.6 333.1 589.9 333.1L589.9 333.1Q589.1 333.1 588.5 332.8Q587.9 332.5 587.5 331.9Q587.1 331.3 587.1 330.4L587.1 330.4L587.1 326.2L588.0 326.2L588.0 330.3Q588.0 331.4 588.5 331.9Q589.1 332.4 590.0 332.4L590.0 332.4Q591.1 332.4 591.8 331.7Q592.5 331.0 592.5 329.6L592.5 329.6L592.5 326.2L593.3 326.2L593.3 334.7Q593.3 335.2 593.0 335.5Q592.8 335.8 592.2 335.8L592.2 335.8ZM598.9 333.2L598.9 333.2Q597.9 333.2 597.1 332.8Q596.3 332.3 595.9 331.5Q595.4 330.7 595.4 329.7L595.4 329.7L595.4 329.5Q595.4 328.5 595.9 327.7Q596.3 326.9 597.1 326.4Q597.9 326 598.9 326L598.9 326Q599.9 326 600.7 326.4Q601.5 326.9 601.9 327.7Q602.3 328.5 602.3 329.5L602.3 329.5L602.3 329.7Q602.3 330.7 601.9 331.5Q601.5 332.3 600.7 332.8Q599.9 333.2 598.9 333.2ZM598.9 332.4L598.9 332.4Q600.1 332.4 600.8 331.7Q601.5 330.9 601.5 329.7L601.5 329.7L601.5 329.5Q601.5 328.3 600.8 327.5Q600.1 326.8 598.9 326.8L598.9 326.8Q597.7 326.8 597.0 327.5Q596.3 328.3 596.3 329.5L596.3 329.5L596.3 329.7Q596.3 330.9 597.0 331.7Q597.7 332.4 598.9 332.4ZM607.1 333.1L607.1 333.1Q606.4 333.1 605.7 332.8Q605.1 332.5 604.7 331.9Q604.4 331.3 604.4 330.3L604.4 330.3L604.4 326.2L605.2 326.2L605.2 330.3Q605.2 331.4 605.8 331.9Q606.3 332.4 607.3 332.4L607.3 332.4Q608.3 332.4 609.0 331.7Q609.7 331.0 609.7 329.6L609.7 329.6L609.7 326.2L610.6 326.2L610.6 333L609.7 333L609.7 331.7L609.6 331.7Q609.3 332.3 608.7 332.7Q608.2 333.1 607.1 333.1ZM619.2 333L617.8 333L616.2 326.2L617.1 326.2L618.4 332.4L618.6 332.4L620.3 326.2L621.8 326.2L623.5 332.4L623.7 332.4L625.0 326.2L625.9 326.2L624.4 333L622.9 333L621.1 326.8L621.0 326.8L619.2 333ZM629.9 333.2L629.9 333.2Q629.1 333.2 628.6 333.0Q628.0 332.7 627.6 332.2Q627.3 331.8 627.3 331.1L627.3 331.1Q627.3 330.4 627.6 329.9Q628.0 329.5 628.6 329.3Q629.1 329.1 629.8 329.1L629.8 329.1L632.3 329.1L632.3 328.5Q632.3 327.7 631.8 327.2Q631.4 326.8 630.5 326.8L630.5 326.8Q629.6 326.8 629.0 327.2Q628.5 327.6 628.3 328.4L628.3 328.4L627.5 328.1Q627.7 327.5 628.1 327.1Q628.4 326.6 629.0 326.3Q629.6 326 630.5 326L630.5 326Q631.8 326 632.5 326.7Q633.2 327.3 633.2 328.5L633.2 328.5L633.2 331.9Q633.2 332.3 633.6 332.3L633.6 332.3L634.2 332.3L634.2 333L633.3 333Q632.9 333 632.6 332.7Q632.4 332.5 632.4 332.0L632.4 332.0L632.4 331.9L632.2 331.9Q632.1 332.2 631.8 332.5Q631.5 332.8 631.0 333.0Q630.6 333.2 629.9 333.2ZM629.9 332.4L629.9 332.4Q631.0 332.4 631.7 331.8Q632.3 331.1 632.3 329.9L632.3 329.9L632.3 329.8L629.8 329.8Q629.1 329.8 628.6 330.1Q628.2 330.4 628.2 331.1L628.2 331.1Q628.2 331.7 628.7 332.1Q629.1 332.4 629.9 332.4ZM639.6 333L637.9 333Q637.3 333 637.0 332.7Q636.8 332.4 636.8 331.9L636.8 331.9L636.8 327.0L634.6 327.0L634.6 326.2L636.8 326.2L636.8 323.6L637.6 323.6L637.6 326.2L640.0 326.2L640.0 327.0L637.6 327.0L637.6 331.8Q637.6 332.2 638.0 332.2L638.0 332.2L639.6 332.2L639.6 333ZM644.7 333.2L644.7 333.2Q643.7 333.2 642.9 332.8Q642.2 332.3 641.7 331.5Q641.3 330.7 641.3 329.7L641.3 329.7L641.3 329.5Q641.3 328.4 641.7 327.6Q642.2 326.9 642.9 326.4Q643.7 326 644.7 326L644.7 326Q645.7 326 646.4 326.4Q647.1 326.7 647.4 327.3Q647.8 327.9 647.9 328.6L647.9 328.6L647.1 328.8Q647.0 328.2 646.7 327.8Q646.5 327.3 646.0 327.0Q645.5 326.8 644.7 326.8L644.7 326.8Q644.0 326.8 643.4 327.1Q642.8 327.4 642.5 328.1Q642.1 328.7 642.1 329.5L642.1 329.5L642.1 329.7Q642.1 330.5 642.5 331.1Q642.8 331.8 643.4 332.1Q644.0 332.4 644.7 332.4L644.7 332.4Q645.8 332.4 646.4 331.9Q647.0 331.3 647.2 330.4L647.2 330.4L648.0 330.6Q647.9 331.3 647.5 331.9Q647.1 332.5 646.4 332.8Q645.7 333.2 644.7 333.2ZM650.9 333L650.0 333L650.0 323.2L650.9 323.2L650.9 327.4L651.1 327.4Q651.2 327.1 651.5 326.7Q651.8 326.4 652.3 326.3Q652.8 326.1 653.5 326.1L653.5 326.1Q654.3 326.1 654.9 326.4Q655.5 326.7 655.9 327.3Q656.2 327.9 656.2 328.9L656.2 328.9L656.2 333L655.4 333L655.4 328.9Q655.4 327.8 654.8 327.3Q654.3 326.8 653.3 326.8L653.3 326.8Q652.3 326.8 651.6 327.5Q650.9 328.2 650.9 329.6L650.9 329.6L650.9 333ZM666.5 333L664.7 333Q664.1 333 663.9 332.7Q663.6 332.4 663.6 331.9L663.6 331.9L663.6 327.0L661.4 327.0L661.4 326.2L663.6 326.2L663.6 323.6L664.4 323.6L664.4 326.2L666.8 326.2L666.8 327.0L664.4 327.0L664.4 331.8Q664.4 332.2 664.9 332.2L664.9 332.2L666.5 332.2L666.5 333ZM669.5 333L668.7 333L668.7 323.2L669.5 323.2L669.5 327.4L669.7 327.4Q669.9 327.1 670.2 326.7Q670.5 326.4 671.0 326.3Q671.4 326.1 672.2 326.1L672.2 326.1Q672.9 326.1 673.5 326.4Q674.1 326.7 674.5 327.3Q674.9 327.9 674.9 328.9L674.9 328.9L674.9 333L674.0 333L674.0 328.9Q674.0 327.8 673.5 327.3Q672.9 326.8 672.0 326.8L672.0 326.8Q670.9 326.8 670.2 327.5Q669.5 328.2 669.5 329.6L669.5 329.6L669.5 333ZM678.1 333L677.3 333L677.3 326.2L678.1 326.2L678.1 333ZM677.7 325.0L677.7 325.0Q677.4 325.0 677.2 324.8Q677.0 324.6 677.0 324.3L677.0 324.3Q677.0 324.0 677.2 323.8Q677.4 323.6 677.7 323.6L677.7 323.6Q678.0 323.6 678.2 323.8Q678.4 324.0 678.4 324.3L678.4 324.3Q678.4 324.6 678.2 324.8Q678.0 325.0 677.7 325.0ZM683.3 333.2L683.3 333.2Q682.0 333.2 681.2 332.6Q680.3 332.0 680.1 330.7L680.1 330.7L680.9 330.5Q681.0 331.3 681.4 331.7Q681.7 332.1 682.2 332.3Q682.7 332.5 683.3 332.5L683.3 332.5Q684.1 332.5 684.6 332.1Q685.1 331.8 685.1 331.2L685.1 331.2Q685.1 330.6 684.7 330.3Q684.2 330.1 683.4 329.9L683.4 329.9L682.7 329.8Q682.1 329.7 681.6 329.5Q681.0 329.3 680.7 328.9Q680.4 328.5 680.4 327.9L680.4 327.9Q680.4 327.0 681.1 326.5Q681.8 326 683.0 326L683.0 326Q684.1 326 684.8 326.5Q685.6 327.1 685.7 328.0L685.7 328.0L685.0 328.2Q684.8 327.4 684.3 327.1Q683.8 326.7 683.0 326.7L683.0 326.7Q682.2 326.7 681.7 327.0Q681.3 327.3 681.3 327.9L681.3 327.9Q681.3 328.4 681.7 328.7Q682.1 329.0 682.9 329.1L682.9 329.1L683.5 329.2Q684.2 329.3 684.8 329.5Q685.3 329.8 685.6 330.1Q686.0 330.5 686.0 331.2L686.0 331.2Q686.0 332.1 685.2 332.7Q684.5 333.2 683.3 333.2ZM688.1 334.6L687.8 334.6L687.8 334.0L688.1 334.0Q688.5 334.0 688.5 333.6L688.5 333.6L688.5 333.1L688.4 333.1Q688.0 333.1 687.8 332.9Q687.6 332.7 687.6 332.4L687.6 332.4Q687.6 332.0 687.8 331.8Q688.0 331.6 688.4 331.6L688.4 331.6Q688.7 331.6 688.9 331.8Q689.2 332.1 689.2 332.4L689.2 332.4L689.2 333.6Q689.2 334.6 688.1 334.6L688.1 334.6ZM695.2 333L694.4 333L694.4 323.2L695.2 323.2L695.2 333ZM698.5 333L697.7 333L697.7 326.2L698.5 326.2L698.5 333ZM698.1 325.0L698.1 325.0Q697.8 325.0 697.6 324.8Q697.4 324.6 697.4 324.3L697.4 324.3Q697.4 324.0 697.6 323.8Q697.8 323.6 698.1 323.6L698.1 323.6Q698.4 323.6 698.6 323.8Q698.8 324.0 698.8 324.3L698.8 324.3Q698.8 324.6 698.6 324.8Q698.4 325.0 698.1 325.0ZM704.2 333L702.8 333L700.3 326.2L701.2 326.2L703.4 332.4L703.6 332.4L705.8 326.2L706.7 326.2L704.2 333ZM711.3 333.2L711.3 333.2Q710.2 333.2 709.5 332.8Q708.7 332.3 708.3 331.5Q707.8 330.7 707.8 329.7L707.8 329.7L707.8 329.5Q707.8 328.5 708.3 327.7Q708.7 326.9 709.5 326.4Q710.2 326 711.2 326L711.2 326Q712.2 326 712.9 326.4Q713.6 326.8 714.0 327.5Q714.5 328.3 714.5 329.3L714.5 329.3L714.5 329.8L708.7 329.8Q708.7 331.1 709.4 331.7Q710.2 332.4 711.3 332.4L711.3 332.4Q712.3 332.4 712.8 332.0Q713.3 331.6 713.6 330.9L713.6 330.9L714.3 331.3Q714.1 331.7 713.8 332.2Q713.4 332.6 712.8 332.9Q712.2 333.2 711.3 333.2ZM708.7 329.1L708.7 329.1L713.6 329.1Q713.6 327.9 712.9 327.4Q712.2 326.8 711.2 326.8L711.2 326.8Q710.2 326.8 709.5 327.4Q708.8 327.9 708.7 329.1Z" fill="#6E7781"></path></svg>